<?xml version="1.0" encoding="UTF-8" standalone="no"?>
<svg
   xmlns:dc="http://purl.org/dc/elements/1.1/"
   xmlns:cc="http://creativecommons.org/ns#"
   xmlns:rdf="http://www.w3.org/1999/02/22-rdf-syntax-ns#"
   xmlns:svg="http://www.w3.org/2000/svg"
   xmlns="http://www.w3.org/2000/svg"
   xmlns:sodipodi="http://sodipodi.sourceforge.net/DTD/sodipodi-0.dtd"
   xmlns:inkscape="http://www.inkscape.org/namespaces/inkscape"
   height="63.963963"
   width="85.285286"
   xml:space="preserve"
   version="1.1"
   style="clip-rule:evenodd;fill:#ffffff;fill-rule:evenodd;image-rendering:optimizeQuality;shape-rendering:geometricPrecision;text-rendering:geometricPrecision"
   viewBox="0 0 284 213"
   x="0px"
   y="0px"
   id="svg10"
   sodipodi:docname="argument.svg"
   inkscape:version="0.92.4 5da689c313, 2019-01-14"><metadata
     id="metadata14"><rdf:RDF><cc:Work
         rdf:about=""><dc:format>image/svg+xml</dc:format><dc:type
           rdf:resource="http://purl.org/dc/dcmitype/StillImage" /><dc:title /></cc:Work></rdf:RDF></metadata><sodipodi:namedview
     pagecolor="#ffffff"
     bordercolor="#666666"
     borderopacity="1"
     objecttolerance="10"
     gridtolerance="10"
     guidetolerance="10"
     inkscape:pageopacity="0"
     inkscape:pageshadow="2"
     inkscape:window-width="1727"
     inkscape:window-height="827"
     id="namedview12"
     showgrid="false"
     inkscape:pagecheckerboard="true"
     inkscape:snap-others="false"
     inkscape:object-nodes="false"
     inkscape:zoom="37.76"
     inkscape:cx="55.749278"
     inkscape:cy="28.457088"
     inkscape:window-x="0"
     inkscape:window-y="0"
     inkscape:window-maximized="0"
     inkscape:current-layer="svg10"
     fit-margin-top="0"
     fit-margin-left="0"
     fit-margin-right="0"
     fit-margin-bottom="0" /><defs
     id="defs4"><style
       type="text/css"
       id="style2">
   
    .fil0 {fill:#ffffff}
   
  </style></defs><path
     style="fill:#ffffff"
     d="m 243,189 h 20 c 12,0 21,-9 21,-20 v -28 c 0,-11 -9,-20 -21,-20 h -20 c -12,0 -21,9 -21,20 v 28 c 0,11 9,20 21,20 z"
     id="path1060"
     inkscape:connector-curvature="0" /><path
     style="fill:#ffdc00;fill-opacity:1"
     d="m 166,0 c -12,0 -23,3 -31,9 21,2 38,15 38,32 0,9 -5,17 -14,23 2,0 4,0 7,0 4,0 8,-1 13,-2 10,12 25,9 25,9 -4,-4 -7,-10 -9,-15 9,-6 14,-15 14,-24 C 209,14 190,0 166,0 Z"
     id="path1058"
     inkscape:connector-curvature="0" /><path
     style="fill:#111111;fill-opacity:1"
     d="m 118,14 c 24,0 44,13 44,30 0,16 -20,30 -44,30 -5,0 -9,-1 -13,-2 -11,11 -25,8 -25,8 3,-4 6,-9 8,-14 C 80,60 74,52 74,44 74,27 94,14 118,14 Z"
     id="path1056"
     inkscape:connector-curvature="0" /><path
     style="fill:#ffffff"
     d="m 88,37 h 13 V 50 H 88 Z"
     id="path1054"
     inkscape:connector-curvature="0" /><path
     style="fill:#ffffff"
     d="m 111,37 h 13 v 13 h -13 z"
     id="path1052"
     inkscape:connector-curvature="0" /><path
     style="fill:#ffffff"
     d="m 135,37 h 13 v 13 h -13 z"
     id="path1050"
     inkscape:connector-curvature="0" /><path
     style="fill:#ffffff"
     d="m 30,74 c 11,0 20,9 20,19 0,11 -9,20 -20,20 -10,0 -19,-9 -19,-20 0,-10 9,-19 19,-19 z"
     id="path1048"
     inkscape:connector-curvature="0" /><path
     style="fill:#ffffff"
     d="m 20,189 h 21 c 11,0 20,-9 20,-20 V 141 C 61,130 52,121 41,121 H 20 C 9,121 0,130 0,141 v 28 c 0,11 9,20 20,20 z"
     id="path1046"
     inkscape:connector-curvature="0" /><path
     style="fill:#ffffff"
     d="m 105,98 c 10,0 19,9 19,20 0,10 -9,19 -19,19 -11,0 -20,-9 -20,-19 0,-11 9,-20 20,-20 z"
     id="path1044"
     inkscape:connector-curvature="0" /><path
     style="fill:#ffffff"
     d="m 179,98 c 10,0 19,9 19,20 0,10 -9,19 -19,19 -11,0 -20,-9 -20,-19 0,-11 9,-20 20,-20 z"
     id="path1042"
     inkscape:connector-curvature="0" /><path
     style="fill:#ffffff"
     d="m 94,213 h 21 c 11,0 20,-9 20,-20 v -28 c 0,-11 -9,-20 -20,-20 H 94 c -11,0 -20,9 -20,20 v 28 c 0,11 9,20 20,20 z"
     id="path1040"
     inkscape:connector-curvature="0" /><path
     style="fill:#ffffff"
     d="m 168,213 h 21 c 11,0 20,-9 20,-20 v -28 c 0,-11 -9,-20 -20,-20 h -21 c -11,0 -20,9 -20,20 v 28 c 0,11 9,20 20,20 z"
     id="path1038"
     inkscape:connector-curvature="0" /><path
     style="fill:#ffffff"
     d="m 253,74 c 11,0 19,9 19,19 0,11 -8,20 -19,20 -11,0 -19,-9 -19,-20 0,-10 8,-19 19,-19 z"
     id="path6"
     inkscape:connector-curvature="0" /><g
     style="fill:#111111"
     id="g964"
     transform="matrix(0.94731581,0,0,0.94731581,0.919935,35.780962)"><g
       id="g951"
       style="fill:none;fill-rule:evenodd;stroke:none;stroke-width:1"><g
         id="g949"
         transform="translate(-408,-248)"><path
           id="path947"
           d="M 419.29134,287.1011 C 418.42991,274.86762 418,267.53848 418,265.06522 418,257.70101 427.92284,252 440,252 c 12.07716,0 22,5.70101 22,13.06522 0,2.47326 -0.42992,9.8024 -1.29134,22.03588 C 467.02636,286.77224 471,287.1152 471,290.11202 471,294.16703 463.4798,299 440,299 c -23.4798,0 -31,-4.83297 -31,-8.88798 0,-2.99681 3.97364,-3.33978 10.29134,-3.01092 z m 1.73102,-3.9338 c 0.14586,2.12187 0.30729,4.42091 0.48431,6.89679 C 427.01615,292.02011 433.1793,293 440,293 c 6.82069,0 12.98385,-0.97989 18.49333,-2.9359 0.17701,-2.47588 0.33845,-4.77493 0.48431,-6.8968 -5.24424,2.03287 -11.82831,3.24296 -18.97764,3.24296 -7.14933,0 -13.7334,-1.21009 -18.97764,-3.24296 z"
           inkscape:connector-curvature="0"
           style="fill:#111111;fill-rule:nonzero" /></g></g></g><g
     style="fill:#0074d9"
     id="g987"
     transform="matrix(0.6386028,0,0,0.6386028,84.82816,77.45109)"><g
       id="g974"
       style="fill:none;fill-rule:evenodd;stroke:none;stroke-width:1"><g
         id="g972"
         transform="translate(-408,-168)"><path
           id="path970"
           d="m 466.45286,205.93383 5.37187,7.83397 c 0.37333,0.54445 0.126,1.29485 -0.49789,1.51061 C 460.30204,219.09111 449.85932,221 440,221 c -9.85932,0 -20.30204,-1.90889 -31.32684,-5.72159 -0.62389,-0.21576 -0.87122,-0.96616 -0.49789,-1.51061 l 5.37187,-7.83397 -3.44311,-10.45368 c -0.76121,-2.31112 0.25185,-4.83466 2.39979,-5.97791 l 23.73739,-12.63442 c 2.3498,-1.2507 5.16778,-1.2507 7.51758,0 l 23.73739,12.63442 c 2.14794,1.14325 3.161,3.66679 2.39979,5.97791 z M 465.72849,203.74 C 458.20364,205.63001 448.44896,207 440,207 c -8.44896,0 -18.20364,-1.36999 -25.72849,-3.26 l 1.0671,3.23982 C 422.97748,208.99275 431.1974,210 440,210 c 8.8026,0 17.02252,-1.00725 24.66139,-3.02018 z m -25.72895,-6.76021 5.29007,3.23116 -1.43829,-6.02964 4.70773,-4.03267 -6.17898,-0.49537 -2.38053,-5.72348 -2.38053,5.72348 -6.17898,0.49537 4.70773,4.03267 -1.43829,6.02964 z"
           inkscape:connector-curvature="0"
           style="fill:#0074d9;fill-rule:nonzero" /></g></g></g><g
     style="fill:#ff4136"
     id="g1010"
     transform="matrix(0.94137786,0,0,0.94137786,148.49235,64.024303)"><g
       id="g997"
       style="fill:none;fill-rule:evenodd;stroke:none;stroke-width:1"><g
         id="g995"
         transform="translate(-728,-168)"><path
           id="path993"
           d="m 740.3621,191.53096 3.202,-7.68481 C 744.02991,182.72821 745.12223,182 746.33333,182 h 27.33334 c 1.2111,0 2.30342,0.72821 2.76923,1.84615 l 3.202,7.68481 c 2.16559,0.59123 4.28628,1.28603 6.3621,2.08442 L 779,213 c -5.33333,-2.66667 -11.66667,-4 -19,-4 -7.33333,0 -13.66667,1.33333 -19,4 l -7,-19.38462 c 2.07582,-0.79839 4.19651,-1.49319 6.3621,-2.08442 z m 2.4224,-0.61376 C 748.24607,189.63907 753.98457,189 760,189 c 6.01543,0 11.75393,0.63907 17.2155,1.9172 l -2.62576,-6.30182 C 774.43447,184.24274 774.07037,184 773.66667,184 h -27.33334 c -0.4037,0 -0.7678,0.24274 -0.92307,0.61538 z M 762,197 v -3 h -4 v 3 h -3 v 4 h 3 v 3 h 4 v -3 h 3 v -4 z"
           inkscape:connector-curvature="0"
           style="fill:#ff4136;fill-rule:nonzero" /></g></g></g><g
     style="fill:#ffdc00"
     id="g1033"
     transform="matrix(0.85983845,0,0,0.85983845,225.3594,44.6517)"><g
       id="g1020"
       style="fill:none;fill-rule:evenodd;stroke:none;stroke-width:1"><g
         id="g1018"
         transform="translate(-248,-88)"><path
           id="path1016"
           d="m 300.13279,112.00197 c -0.0446,-0.001 -0.0894,-0.002 -0.13458,-0.002 -2.37544,0 -3.99966,1.82453 -3.99966,4.68182 0,0.10656 0.002,0.2138 0.006,0.32152 -0.10111,-0.0374 -0.20242,-0.0725 -0.30376,-0.10548 -1.60107,-0.52026 -3.0354,-0.39336 -4.09379,0.2609 C 288.2018,116.38625 284.33265,116 280,116 c -7.85797,0 -14.1913,1.27053 -19,3.81158 v 5.79641 C 266.24428,123.30152 272.60007,122 280,122 c 3.87918,0 7.4691,0.33946 10.75734,0.97925 0.57955,0.65275 1.41307,1.18298 2.47196,1.52706 0.10134,0.0329 0.20398,0.064 0.30775,0.0932 -0.0668,0.0846 -0.13155,0.17011 -0.19418,0.25633 -1.67933,2.31159 -1.43765,4.74244 0.48412,6.13881 1.92177,1.39636 4.30814,0.87506 5.98746,-1.43653 0.0626,-0.0862 0.12391,-0.17424 0.18376,-0.2639 0.0599,0.0897 0.12113,0.17769 0.18376,0.2639 1.67933,2.31159 4.06569,2.83289 5.98746,1.43653 0.29867,-0.21702 0.55676,-0.45902 0.77337,-0.72168 3.14052,2.69744 5.0572,5.69368 5.0572,7.727 0,0.74673 -0.78872,1.23003 -1.45404,0.89098 C 302.85302,134.97065 292.67134,133 280,133 c -12.67134,0 -22.85302,1.97065 -30.54596,5.89098 C 248.78872,139.23003 248,138.74673 248,138 c 0,-2.22618 3.03258,-6.26133 7.51952,-9.3524 1.09042,-0.75118 2.25092,-1.44736 3.48048,-2.08398 v -8.16497 C 259,104.76319 269.15202,99 280,99 c 8.96608,0 17.45672,3.93704 20.13279,13.00197 z m -1.87989,6.50348 c -0.16606,-0.60446 -0.25452,-1.23414 -0.25452,-1.82363 0,-1.80115 0.78398,-2.68182 1.99983,-2.68182 1.21585,0 1.99983,0.88067 1.99983,2.68182 0,0.58949 -0.0885,1.21917 -0.25452,1.82363 -0.24441,0.88964 0.74358,1.60752 1.51408,1.10014 0.52351,-0.34474 1.09499,-0.62346 1.65558,-0.80562 1.71285,-0.55659 2.79261,-0.0831 3.16832,1.07339 0.37572,1.15643 -0.21951,2.17425 -1.93236,2.73084 -0.56059,0.18216 -1.18673,0.29261 -1.81288,0.32145 -0.92155,0.0424 -1.29893,1.20399 -0.57833,1.78006 0.48962,0.3914 0.93126,0.84882 1.27773,1.32573 1.0586,1.45716 0.94194,2.63049 -0.0417,3.3452 -0.98364,0.71472 -2.13549,0.4631 -3.1941,-0.99406 -0.34646,-0.47691 -0.64498,-1.03833 -0.8659,-1.62496 -0.32513,-0.86341 -1.54636,-0.86341 -1.8715,0 -0.22092,0.58663 -0.51944,1.14805 -0.8659,1.62496 -1.0586,1.45716 -2.21046,1.70878 -3.1941,0.99406 -0.98364,-0.71471 -1.10029,-1.88804 -0.0417,-3.3452 0.34647,-0.47691 0.78811,-0.93433 1.27773,-1.32573 0.72061,-0.57607 0.34322,-1.73762 -0.57833,-1.78006 -0.62615,-0.0288 -1.25229,-0.13929 -1.81288,-0.32145 -1.71285,-0.55659 -2.30808,-1.57441 -1.93236,-2.73084 0.37572,-1.15644 1.45547,-1.62998 3.16832,-1.07339 0.5606,0.18216 1.13207,0.46088 1.65558,0.80562 0.7705,0.50738 1.7585,-0.2105 1.51408,-1.10014 z M 299.99821,125 c 1.3806,0 2.49979,-1.11929 2.49979,-2.5 0,-1.38071 -1.11919,-2.5 -2.49979,-2.5 -1.38059,0 -2.49979,1.11929 -2.49979,2.5 0,1.38071 1.1192,2.5 2.49979,2.5 z"
           inkscape:connector-curvature="0"
           style="fill:#ffdc00;fill-rule:nonzero" /></g></g></g></svg>