<svg height='100px' width='100px'  fill="#111111" xmlns="http://www.w3.org/2000/svg" xmlns:xlink="http://www.w3.org/1999/xlink" viewBox="0 0 64 64" version="1.1" x="0px" y="0px"><title>026 bowler-hat accessory fashion clothing man</title><desc>Created with Sketch.</desc><g stroke="none" stroke-width="1" fill="none" fill-rule="evenodd"><g transform="translate(-408.000000, -248.000000)"><path d="M419.291344,287.101102 C418.429915,274.86762 418,267.538482 418,265.065217 C418,257.701012 427.922842,252 440,252 C452.077158,252 462,257.701012 462,265.065217 C462,267.538482 461.570085,274.86762 460.708656,287.101102 C467.026355,286.772236 471,287.115209 471,290.112016 C471,294.167028 463.479802,299 440,299 C416.520198,299 409,294.167028 409,290.112016 C409,287.115209 412.973645,286.772236 419.291344,287.101102 Z M421.022365,283.167298 C421.168216,285.289171 421.329655,287.588215 421.506671,290.064095 C427.016151,292.020106 433.179305,293 440,293 C446.820695,293 452.983849,292.020106 458.493328,290.064103 C458.670345,287.58822 458.831784,285.289173 458.977635,283.167298 C453.733397,285.200175 447.149328,286.410256 440,286.410256 C432.850672,286.410256 426.266603,285.200175 421.022365,283.167298 Z" fill="#111111" fill-rule="nonzero"></path></g></g></svg>