<svg height='100px' width='100px'  fill="#0074d9" xmlns="http://www.w3.org/2000/svg" xmlns:xlink="http://www.w3.org/1999/xlink" viewBox="0 0 64 64" version="1.1" x="0px" y="0px"><title>036 police-hat accessory fashion clothing</title><desc>Created with Sketch.</desc><g stroke="none" stroke-width="1" fill="none" fill-rule="evenodd"><g transform="translate(-408.000000, -168.000000)"><path d="M466.452862,205.933832 L471.824729,213.767805 C472.198061,214.312248 471.95073,215.062653 471.326837,215.278414 C460.302043,219.091115 449.85932,221 440,221 C430.14068,221 419.697957,219.091115 408.673163,215.278414 C408.04927,215.062653 407.801939,214.312248 408.175271,213.767805 L413.547138,205.933832 L410.10403,195.48015 C409.342822,193.169034 410.355878,190.645495 412.50382,189.502236 L436.241207,176.86782 C438.59101,175.617119 441.40899,175.617119 443.758793,176.86782 L467.49618,189.502236 C469.644122,190.645495 470.657178,193.169034 469.89597,195.48015 L466.452862,205.933832 Z M465.728486,203.739998 C458.203643,205.630013 448.448961,207 440,207 C431.551039,207 421.796358,205.630013 414.271514,203.739998 L415.338608,206.979821 C422.977482,208.992748 431.197397,210 440,210 C448.802603,210 457.022518,208.992748 464.661392,206.979821 L465.728486,203.739998 Z M439.999539,196.979794 L445.289607,200.210947 L443.851318,194.181313 L448.559048,190.148641 L442.38007,189.653275 L439.999539,183.929794 L437.619009,189.653275 L431.440031,190.148641 L436.147761,194.181313 L434.709472,200.210947 L439.999539,196.979794 Z" fill="#0074d9" fill-rule="nonzero"></path></g></g></svg>