<svg height='100px' width='100px'  fill="#2ecc40" xmlns="http://www.w3.org/2000/svg" xmlns:xlink="http://www.w3.org/1999/xlink" viewBox="0 0 64 64" version="1.1" x="0px" y="0px"><title>040 chef-hat accessory fashion clothing</title><desc>Created with Sketch.</desc><g stroke="none" stroke-width="1" fill="none" fill-rule="evenodd"><g transform="translate(-88.000000, -168.000000)"><path d="M99.0000038,211.888163 C93.3118512,210.222237 84.726846,203.165774 91.6698673,194.278178 C95.073668,189.921053 101.528926,191.316655 110.728214,188.347241 C118,186 124.059814,179.918183 131.676753,180.873239 C138.641168,181.746479 141.323499,186.546238 143.049629,188.732394 C146.15235,192.662016 149.602381,192.667143 150.386443,195.888491 C151.819458,201.776088 145.994574,204.728296 143,210.487447 L143,216 C143,216.648588 142.392103,217.125576 141.762131,216.971297 C134.83942,215.275939 127.919248,214.428571 121,214.428571 C114.080752,214.428571 107.16058,215.275939 100.237869,216.971297 C99.6078964,217.125576 98.9999994,216.648588 99,215.999999 L99.0000038,211.888163 Z M100.627327,205.736164 C101.070073,205.409714 101.585374,205.170958 102.150464,205.04814 C102.228905,205.031091 102.307347,205.014149 102.385789,204.997313 C99.9590302,204.311769 97.7170108,203.49856 95.6597308,202.557685 C96.6001206,204.059588 98.2559861,205.119081 100.627327,205.736164 Z M112.211733,203.445164 C113.079454,203.357253 113.947198,203.282362 114.814961,203.220491 C111.742152,202.068779 109.023742,200.847844 106.659731,199.557685 C107.637864,201.119868 109.488531,202.415694 112.211733,203.445164 Z M124.644254,203.076545 C125.527234,203.113639 126.410198,203.164213 127.29314,203.228266 C123.926052,200.820342 121.161672,198.41092 119,196 C119.510927,198.554633 121.392345,200.913481 124.644254,203.076545 Z M136.707648,204.422208 C137.384377,204.544765 138.061088,204.675241 138.737779,204.813637 C140.163958,203.845863 141.249625,202.241318 141.994782,200 C140.672079,201.766677 138.909701,203.240747 136.707648,204.422208 Z M141,208.956885 C141,208.016001 140.344189,207.202343 139.42477,207.002513 C133.281761,205.667373 127.140558,205 121,205 C114.859443,205 108.71824,205.667373 102.575232,207.002512 C101.655815,207.202341 101.000006,208.015996 101.000006,208.956879 L101.000001,214.734391 C107.664948,213.197351 114.332065,212.428571 121,212.428571 C127.667935,212.428571 134.335052,213.197351 141,214.734391 L141,208.956885 Z" fill="#2ecc40" fill-rule="nonzero"></path></g></g></svg>