<?xml version="1.0" encoding="UTF-8" standalone="no"?>
<svg
   xmlns:i="http://ns.adobe.com/AdobeIllustrator/10.0/"
   xmlns:dc="http://purl.org/dc/elements/1.1/"
   xmlns:cc="http://creativecommons.org/ns#"
   xmlns:rdf="http://www.w3.org/1999/02/22-rdf-syntax-ns#"
   xmlns:svg="http://www.w3.org/2000/svg"
   xmlns="http://www.w3.org/2000/svg"
   xmlns:sodipodi="http://sodipodi.sourceforge.net/DTD/sodipodi-0.dtd"
   xmlns:inkscape="http://www.inkscape.org/namespaces/inkscape"
   height="100"
   width="250"
   version="1.1"
   x="0px"
   y="0px"
   viewBox="0 0 180 72"
   enable-background="new 0 0 72 72"
   xml:space="preserve"
   id="svg8"
   sodipodi:docname="house_viewing.svg"
   inkscape:version="0.92.4 5da689c313, 2019-01-14"
   style="fill:#ff4136"><metadata
     id="metadata14"><rdf:RDF><cc:Work
         rdf:about=""><dc:format>image/svg+xml</dc:format><dc:type
           rdf:resource="http://purl.org/dc/dcmitype/StillImage" /><dc:title></dc:title></cc:Work></rdf:RDF></metadata><defs
     id="defs12" /><sodipodi:namedview
     pagecolor="#ffffff"
     bordercolor="#666666"
     borderopacity="1"
     objecttolerance="10"
     gridtolerance="10"
     guidetolerance="10"
     inkscape:pageopacity="0"
     inkscape:pageshadow="2"
     inkscape:window-width="1676"
     inkscape:window-height="585"
     id="namedview10"
     showgrid="false"
     inkscape:zoom="2.36"
     inkscape:cx="129.66996"
     inkscape:cy="37.158381"
     inkscape:window-x="85"
     inkscape:window-y="184"
     inkscape:window-maximized="0"
     inkscape:current-layer="svg8"
     inkscape:pagecheckerboard="true" /><g
     transform="matrix(0.2680226,0,0,0.2680226,18.533898,39.04895)"
     id="g983"
     style="fill:#ffffff"><g
       id="g981"
       style="fill:#ffffff"><g
         i:extraneous="self"
         id="g979"
         style="fill:#ffffff"><g
           id="g977"
           style="fill:#ffffff"><path
             inkscape:connector-curvature="0"
             d="m 67.5,44.4 c 0,-7.3 -6,-13.2 -13.3,-13.2 h -8.4 c -7.3,0 -13.2,5.9 -13.3,13.2 V 57 c 0,3.3 2.1,6.2 5.2,7.2 l 1.6,0.5 1.7,29.1 c 0.1,2.1 1.8,3.7 3.9,3.7 h 10.3 c 2.1,0 3.8,-1.6 3.9,-3.7 l 1.7,-29.1 1.6,-0.5 c 3.1,-1.1 5.2,-4 5.2,-7.2 z"
             id="path973"
             style="fill:#ffffff" /><circle
             cx="50"
             cy="15"
             r="12.5"
             id="circle975"
             style="fill:#ffffff" /></g></g></g></g><g
     id="g6"><path
       d="M 32.2,31.9 47.6,5.2 C 47.7,5 48,5 48.1,5.2 l 19.1,22.6 c 0.1,0.1 0.1,0.1 0.2,0.1 h 3.2 c 0.3,0 0.4,-0.3 0.2,-0.5 L 48.7,1.1 C 48.6,1 48.5,1 48.4,1 h -31 C 17.3,1 17.2,1.1 17.1,1.1 L 1.1,24.4 C 1,24.5 1,24.6 1,24.7 v 0.4 c 0,0.1 0.1,0.3 0.2,0.3 L 31.9,32 c 0.1,0.1 0.2,0 0.3,-0.1 z"
       id="path2"
       inkscape:connector-curvature="0"
       style="fill:#ff4136" /><path
       d="M 48.4,12.4 34.2,36.9 c 0,0 -0.1,0.1 -0.1,0 L 5.4,30.7 c -0.1,0 -0.1,0 -0.1,0.1 v 27.7 c 0,0 0,0.1 0.1,0.1 l 15.4,6.6 c 0.1,0 0.1,0 0.1,-0.1 V 41.7 c 0,-0.1 0.1,-0.1 0.1,-0.1 l 11,2.6 c 0,0 0.1,0.1 0.1,0.1 v 25.8 c 0,0 0,0.1 0.1,0.1 l 1.9,0.8 c 0.1,0 0.2,0 0.3,0 L 63.5,58.6 c 0,0 0.1,-0.1 0.1,-0.1 V 30 c 0,0 0,0 0,-0.1 l -15,-17.5 c 0,-0.1 -0.1,0 -0.2,0 z M 17.1,54 8.2,50.4 c 0,0 -0.1,-0.1 -0.1,-0.1 v -12 c 0,-0.1 0.1,-0.1 0.1,-0.1 l 8.9,2.5 c 0,0 0.1,0.1 0.1,0.1 v 13.1 c 0,0.1 0,0.1 -0.1,0.1 z m 42,-5.1 -18.9,5.8 c -0.1,0 -0.1,0 -0.1,-0.1 V 40.5 c 0,0 0,-0.1 0.1,-0.1 l 18.9,-5.8 c 0.1,0 0.1,0 0.1,0.1 l -0.1,14.2 c 0.1,-0.1 0.1,0 0,0 z"
       id="path4"
       inkscape:connector-curvature="0"
       style="fill:#ff4136" /></g><g
     style="fill:#ffffff"
     id="g928"
     transform="matrix(0.2680226,0,0,0.2680226,-0.9915255,42.099797)"><g
       id="g913"
       style="fill:#ffffff"><g
         id="g911"
         i:extraneous="self"
         style="fill:#ffffff"><g
           id="g909"
           style="fill:#ffffff"><path
             id="path905"
             d="m 67.5,44.4 c 0,-7.3 -6,-13.2 -13.3,-13.2 h -8.4 c -7.3,0 -13.2,5.9 -13.3,13.2 V 57 c 0,3.3 2.1,6.2 5.2,7.2 l 1.6,0.5 1.7,29.1 c 0.1,2.1 1.8,3.7 3.9,3.7 h 10.3 c 2.1,0 3.8,-1.6 3.9,-3.7 l 1.7,-29.1 1.6,-0.5 c 3.1,-1.1 5.2,-4 5.2,-7.2 z"
             inkscape:connector-curvature="0"
             style="fill:#ffffff" /><circle
             id="circle907"
             r="12.5"
             cy="15"
             cx="50"
             style="fill:#ffffff" /></g></g></g></g><g
     transform="matrix(0.2680226,0,0,0.2680226,43.026147,42.847458)"
     id="g940"
     style="fill:#ffffff"><g
       id="g938"
       style="fill:#ffffff"><g
         i:extraneous="self"
         id="g936"
         style="fill:#ffffff"><g
           id="g934"
           style="fill:#ffffff"><path
             inkscape:connector-curvature="0"
             d="m 67.5,44.4 c 0,-7.3 -6,-13.2 -13.3,-13.2 h -8.4 c -7.3,0 -13.2,5.9 -13.3,13.2 V 57 c 0,3.3 2.1,6.2 5.2,7.2 l 1.6,0.5 1.7,29.1 c 0.1,2.1 1.8,3.7 3.9,3.7 h 10.3 c 2.1,0 3.8,-1.6 3.9,-3.7 l 1.7,-29.1 1.6,-0.5 c 3.1,-1.1 5.2,-4 5.2,-7.2 z"
             id="path930"
             style="fill:#ffffff" /><circle
             cx="50"
             cy="15"
             r="12.5"
             id="circle932"
             style="fill:#ffffff" /></g></g></g></g><g
     id="g848"
     transform="translate(109.09595)"><path
       style="fill:#ff4136"
       inkscape:connector-curvature="0"
       id="path844"
       d="M 32.2,31.9 47.6,5.2 C 47.7,5 48,5 48.1,5.2 l 19.1,22.6 c 0.1,0.1 0.1,0.1 0.2,0.1 h 3.2 c 0.3,0 0.4,-0.3 0.2,-0.5 L 48.7,1.1 C 48.6,1 48.5,1 48.4,1 h -31 C 17.3,1 17.2,1.1 17.1,1.1 L 1.1,24.4 C 1,24.5 1,24.6 1,24.7 v 0.4 c 0,0.1 0.1,0.3 0.2,0.3 L 31.9,32 c 0.1,0.1 0.2,0 0.3,-0.1 z" /><path
       style="fill:#ff4136"
       inkscape:connector-curvature="0"
       id="path846"
       d="M 48.4,12.4 34.2,36.9 c 0,0 -0.1,0.1 -0.1,0 L 5.4,30.7 c -0.1,0 -0.1,0 -0.1,0.1 v 27.7 c 0,0 0,0.1 0.1,0.1 l 15.4,6.6 c 0.1,0 0.1,0 0.1,-0.1 V 41.7 c 0,-0.1 0.1,-0.1 0.1,-0.1 l 11,2.6 c 0,0 0.1,0.1 0.1,0.1 v 25.8 c 0,0 0,0.1 0.1,0.1 l 1.9,0.8 c 0.1,0 0.2,0 0.3,0 L 63.5,58.6 c 0,0 0.1,-0.1 0.1,-0.1 V 30 c 0,0 0,0 0,-0.1 l -15,-17.5 c 0,-0.1 -0.1,0 -0.2,0 z M 17.1,54 8.2,50.4 c 0,0 -0.1,-0.1 -0.1,-0.1 v -12 c 0,-0.1 0.1,-0.1 0.1,-0.1 l 8.9,2.5 c 0,0 0.1,0.1 0.1,0.1 v 13.1 c 0,0.1 0,0.1 -0.1,0.1 z m 42,-5.1 -18.9,5.8 c -0.1,0 -0.1,0 -0.1,-0.1 V 40.5 c 0,0 0,-0.1 0.1,-0.1 l 18.9,-5.8 c 0.1,0 0.1,0 0.1,0.1 l -0.1,14.2 c 0.1,-0.1 0.1,0 0,0 z" /></g><g
     transform="matrix(0.2680226,0,0,0.2680226,138.61291,46.065899)"
     id="g860"
     style="fill:#ffffff"><g
       style="fill:#ffffff"
       id="g858"><g
         style="fill:#ffffff"
         i:extraneous="self"
         id="g856"><g
           style="fill:#ffffff"
           id="g854"><path
             style="fill:#ffffff"
             inkscape:connector-curvature="0"
             d="m 67.5,44.4 c 0,-7.3 -6,-13.2 -13.3,-13.2 h -8.4 c -7.3,0 -13.2,5.9 -13.3,13.2 V 57 c 0,3.3 2.1,6.2 5.2,7.2 l 1.6,0.5 1.7,29.1 c 0.1,2.1 1.8,3.7 3.9,3.7 h 10.3 c 2.1,0 3.8,-1.6 3.9,-3.7 l 1.7,-29.1 1.6,-0.5 c 3.1,-1.1 5.2,-4 5.2,-7.2 z"
             id="path850" /><circle
             style="fill:#ffffff"
             cx="50"
             cy="15"
             r="12.5"
             id="circle852" /></g></g></g></g><g
     style="fill:#ffffff"
     id="g872"
     transform="matrix(0.2680226,0,0,0.2680226,160.0612,38.413175)"><g
       style="fill:#ffffff"
       id="g870"><g
         style="fill:#ffffff"
         id="g868"
         i:extraneous="self"><g
           style="fill:#ffffff"
           id="g866"><path
             style="fill:#ffffff"
             id="path862"
             d="m 67.5,44.4 c 0,-7.3 -6,-13.2 -13.3,-13.2 h -8.4 c -7.3,0 -13.2,5.9 -13.3,13.2 V 57 c 0,3.3 2.1,6.2 5.2,7.2 l 1.6,0.5 1.7,29.1 c 0.1,2.1 1.8,3.7 3.9,3.7 h 10.3 c 2.1,0 3.8,-1.6 3.9,-3.7 l 1.7,-29.1 1.6,-0.5 c 3.1,-1.1 5.2,-4 5.2,-7.2 z"
             inkscape:connector-curvature="0" /><circle
             style="fill:#ffffff"
             id="circle864"
             r="12.5"
             cy="15"
             cx="50" /></g></g></g></g><g
     style="fill:#ffffff"
     id="g842"
     transform="matrix(0.2680226,0,0,0.2680226,149.59595,42.099798)"><g
       style="fill:#ffffff"
       id="g840"><g
         style="fill:#ffffff"
         id="g838"
         i:extraneous="self"><g
           style="fill:#ffffff"
           id="g836"><path
             style="fill:#ffffff"
             id="path832"
             d="m 67.5,44.4 c 0,-7.3 -6,-13.2 -13.3,-13.2 h -8.4 c -7.3,0 -13.2,5.9 -13.3,13.2 V 57 c 0,3.3 2.1,6.2 5.2,7.2 l 1.6,0.5 1.7,29.1 c 0.1,2.1 1.8,3.7 3.9,3.7 h 10.3 c 2.1,0 3.8,-1.6 3.9,-3.7 l 1.7,-29.1 1.6,-0.5 c 3.1,-1.1 5.2,-4 5.2,-7.2 z"
             inkscape:connector-curvature="0" /><circle
             style="fill:#ffffff"
             id="circle834"
             r="12.5"
             cy="15"
             cx="50" /></g></g></g></g><g
     style="fill:#2ecc40"
     id="g918"
     transform="matrix(0.2837389,0,0,0.2837389,75.812727,21.804899)"><path
       id="path907"
       d="M 60.64,9 A 3.72,3.72 0 0 0 57.89,7.93 3.68,3.68 0 0 0 55.19,9 3.71,3.71 0 0 0 54.06,11.69 v 23 H 0 v 30.62 h 54.06 v 23 a 3.86,3.86 0 0 0 3.82,3.82 4.49,4.49 0 0 0 2.88,-1.19 L 98.92,52.63 A 3.55,3.55 0 0 0 100,50 3.71,3.71 0 0 0 98.92,47.25 Z"
       inkscape:connector-curvature="0" /></g></svg>