<?xml version="1.0" encoding="UTF-8" standalone="no"?>
<svg
   xmlns:dc="http://purl.org/dc/elements/1.1/"
   xmlns:cc="http://creativecommons.org/ns#"
   xmlns:rdf="http://www.w3.org/1999/02/22-rdf-syntax-ns#"
   xmlns:svg="http://www.w3.org/2000/svg"
   xmlns="http://www.w3.org/2000/svg"
   xmlns:sodipodi="http://sodipodi.sourceforge.net/DTD/sodipodi-0.dtd"
   xmlns:inkscape="http://www.inkscape.org/namespaces/inkscape"
   height="71.08284"
   width="61.6245"
   xml:space="preserve"
   version="1.1"
   style="clip-rule:evenodd;fill:#2ecc40;fill-rule:evenodd;image-rendering:optimizeQuality;shape-rendering:geometricPrecision;text-rendering:geometricPrecision"
   viewBox="0 0 521.74999 601.82997"
   x="0px"
   y="0px"
   id="svg10"
   sodipodi:docname="notes.svg"
   inkscape:version="0.92.4 5da689c313, 2019-01-14"><metadata
     id="metadata14"><rdf:RDF><cc:Work
         rdf:about=""><dc:format>image/svg+xml</dc:format><dc:type
           rdf:resource="http://purl.org/dc/dcmitype/StillImage" /><dc:title></dc:title></cc:Work></rdf:RDF></metadata><sodipodi:namedview
     pagecolor="#ffffff"
     bordercolor="#666666"
     borderopacity="1"
     objecttolerance="10"
     gridtolerance="10"
     guidetolerance="10"
     inkscape:pageopacity="0"
     inkscape:pageshadow="2"
     inkscape:window-width="817"
     inkscape:window-height="480"
     id="namedview12"
     showgrid="false"
     fit-margin-top="0"
     fit-margin-left="0"
     fit-margin-right="0"
     fit-margin-bottom="0"
     inkscape:zoom="2.36"
     inkscape:cx="30.812841"
     inkscape:cy="35.542012"
     inkscape:window-x="0"
     inkscape:window-y="0"
     inkscape:window-maximized="0"
     inkscape:current-layer="svg10" /><defs
     id="defs4"><style
       type="text/css"
       id="style2">
   
    .fil0 {fill:#2ecc40;fill-rule:nonzero}
   
  </style></defs><g
     id="g8"
     transform="translate(-162.45,-122.42)"><path
       class="fil0"
       d="m 291.48,122.42 h 317.63 c 41.31,0 75.09,33.78 75.09,75.07 v 451.68 c 0,41.26 -33.82,75.08 -75.09,75.08 H 291.48 c -47.69,0 -75.07,-37.85 -75.07,-82.8 -31.61,-7.78 -53.96,-36.19 -53.96,-68.86 0,-32.67 22.35,-61.08 53.96,-68.86 V 492.19 C 184.8,484.42 162.45,456 162.45,423.34 c 0,-32.67 22.35,-61.09 53.96,-68.86 v -11.55 c -31.61,-7.78 -53.96,-36.19 -53.96,-68.86 0,-32.67 22.35,-61.08 53.96,-68.86 0,-45.14 27.06,-82.79 75.07,-82.79 z m 178.9,197.67 V 221 c 0,-7.47 6.07,-13.54 13.55,-13.54 17.08,0 30.46,15.66 38.16,29.12 7.11,12.41 11.95,28.2 9.88,44.72 1.66,0 -4.97,17.73 -5.64,19.1 -7.77,16.09 -32.1,4.35 -24.32,-11.76 6.7,-13.8 2.91,-28.02 -4.54,-40.54 v 109.18 c 0,23.84 -16.86,43.59 -41.69,43.59 -23.02,0 -41.7,-18.68 -41.7,-41.71 0,-29.3 29.35,-49.12 56.3,-39.07 z M 359.7,612.26 c -22.26,0 -22.26,-33.86 0,-33.86 h 227.2 c 22.27,0 22.27,33.86 0,33.86 z m 0,-114.66 c -22.26,0 -22.26,-33.86 0,-33.86 h 227.2 c 22.27,0 22.27,33.86 0,33.86 z M 216.41,306.99 v -65.85 c -12.33,6.38 -20.1,18.96 -20.1,32.93 0,13.96 7.77,26.54 20.1,32.92 z m 33.86,-101.78 c 24.02,5.91 43.22,23.96 50.68,47.53 17.01,3.02 29.93,17.87 29.93,35.77 0,20.08 -16.27,36.33 -36.34,36.33 -32.54,0 -48.15,-39.29 -25.87,-61.85 -2.96,-9.48 -9.6,-17.3 -18.4,-21.85 0,37.78 0,75.56 0,113.34 23.98,5.89 43.28,23.98 50.69,47.54 17.01,3.02 29.92,17.88 29.92,35.77 0,20.07 -16.27,36.34 -36.34,36.34 -32.54,0 -48.15,-39.31 -25.87,-61.87 -2.96,-9.48 -9.6,-17.3 -18.4,-21.85 0,37.77 0,75.55 0,113.32 23.98,5.89 43.28,23.99 50.69,47.54 17.01,3.02 29.92,17.88 29.92,35.77 0,20.07 -16.27,36.34 -36.34,36.34 -32.54,0 -48.15,-39.31 -25.87,-61.87 -2.96,-9.48 -9.6,-17.3 -18.4,-21.85 0,36.5 0,73.01 0,109.51 0,22.65 18.54,41.22 41.21,41.22 h 317.63 c 22.73,0 41.23,-18.51 41.23,-41.22 V 197.49 c 0,-22.68 -18.54,-41.21 -41.23,-41.21 H 291.48 c -29.32,0 -41.21,23.02 -41.21,48.93 z m -33.86,251.05 v -65.85 c -12.33,6.38 -20.1,18.96 -20.1,32.93 0,13.96 7.77,26.54 20.1,32.92 z m 0,149.25 v -65.85 c -12.33,6.38 -20.1,18.97 -20.1,32.93 0,13.96 7.77,26.54 20.1,32.92 z"
       id="path6"
       inkscape:connector-curvature="0"
       style="fill:#2ecc40;fill-rule:nonzero" /></g></svg>