<svg height='100px' width='100px'  fill="#ff4136" xmlns="http://www.w3.org/2000/svg" xmlns:xlink="http://www.w3.org/1999/xlink" viewBox="0 0 64 64" version="1.1" x="0px" y="0px"><title>032 nurse-hat accessory fashion clothing hospital</title><desc>Created with Sketch.</desc><g stroke="none" stroke-width="1" fill="none" fill-rule="evenodd"><g transform="translate(-728.000000, -168.000000)"><path d="M740.3621,191.53096 L743.564103,183.846154 C744.029911,182.728213 745.122231,182 746.333333,182 L773.666667,182 C774.877769,182 775.970089,182.728213 776.435897,183.846154 L779.6379,191.53096 C781.803485,192.122186 783.924185,192.816994 786,193.615385 L779,213 C773.666667,210.333333 767.333333,209 760,209 C752.666667,209 746.333333,210.333333 741,213 L734,193.615385 C736.075815,192.816994 738.196515,192.122186 740.3621,191.53096 Z M742.7845,190.917201 C748.246071,189.639067 753.984571,189 760,189 C766.015429,189 771.753929,189.639067 777.2155,190.917201 L774.589744,184.615385 C774.434474,184.242738 774.070368,184 773.666667,184 L746.333333,184 C745.929632,184 745.565526,184.242738 745.410256,184.615385 L742.7845,190.917201 Z M762,197 L762,194 L758,194 L758,197 L755,197 L755,201 L758,201 L758,204 L762,204 L762,201 L765,201 L765,197 L762,197 Z" fill="#ff4136" fill-rule="nonzero"></path></g></g></svg>