<?xml version="1.0" encoding="UTF-8" standalone="no"?>
<svg
   xmlns:dc="http://purl.org/dc/elements/1.1/"
   xmlns:cc="http://creativecommons.org/ns#"
   xmlns:rdf="http://www.w3.org/1999/02/22-rdf-syntax-ns#"
   xmlns:svg="http://www.w3.org/2000/svg"
   xmlns="http://www.w3.org/2000/svg"
   xmlns:xlink="http://www.w3.org/1999/xlink"
   xmlns:sodipodi="http://sodipodi.sourceforge.net/DTD/sodipodi-0.dtd"
   xmlns:inkscape="http://www.inkscape.org/namespaces/inkscape"
   height="100"
   width="250"
   viewBox="0 0 338.6675 135.467"
   version="1.1"
   x="0px"
   y="0px"
   id="svg1839"
   sodipodi:docname="same_time.svg"
   style="fill:#ffffff"
   inkscape:version="0.92.4 5da689c313, 2019-01-14">
  <metadata
     id="metadata1845">
    <rdf:RDF>
      <cc:Work
         rdf:about="">
        <dc:format>image/svg+xml</dc:format>
        <dc:type
           rdf:resource="http://purl.org/dc/dcmitype/StillImage" />
        <dc:title></dc:title>
      </cc:Work>
    </rdf:RDF>
  </metadata>
  <defs
     id="defs1843">
    <g
       id="a">
      <path
         id="path3062"
         d=" M 84.9 74.75 Q 88.35 71.3 89.4 69.95 87.1 67.2 77.15 56.4 75.2 54.3 73.55 52.5 75.45 50.5 77.85 48.05 86.9 38.75 89.4 36.05 79.7 26 79.05 25.15 75 20.6 70.8 16.05 70.7 16.1 70.55 16.25 69.5 14.9 63.3 11.05 62.1 11.85 50.75 22.9 49 24.6 47.45 26.15 37.8 16.8 36.7 16.05 30.1 11.65 29.2 11.05 25 15.6 20.95 20.15 20.3 21 10.6 31.05 13.1 33.75 22.15 43.05 24.55 45.5 26.5 47.5 24.8 49.3 22.85 51.4 12.9 62.2 10.6 64.95 11.65 66.3 15.1 69.75 18.3 73.05 19.85 74.35 25.7 80.7 29.05 83.95 34.05 87.5 35.7 88.1 36.15 88.55 36.55 88.95 44.85 80.7 52.55 73.15 57.85 78.4 63.45 83.95 L 70.95 88.95 Q 74.3 85.7 80.15 79.35 81.7 78.05 84.9 74.75 M 63.4 14.15 L 68.75 17.85 Q 65.65 20.65 58.25 27.9 55.85 30.25 53.75 32.3 51.7 30.3 49.4 28.05 52 25.45 54.1 23.45 60.6 17.15 63.4 14.15 M 53.75 36.05 L 53.8 36.05 Q 58.3 31.6 61.6 28.45 68.1 22.15 70.9 19.15 72.95 21.6 78 27.6 84.1 34.8 85.4 36.2 84.05 37.7 69.9 52.15 80.8 63.45 86.4 70 83.75 72.5 79.05 77.4 78 78.5 70.55 85.65 62.3 77.25 53.75 68.6 45.2 77.25 36.95 85.65 29.5 78.5 28.45 77.4 23.75 72.5 21.1 70 26.7 63.5 37.6 52.15 23.45 37.7 22.1 36.2 23.4 34.8 29.5 27.6 34.55 21.6 36.6 19.15 39.4 22.15 45.9 28.45 49.2 31.6 53.75 36.05 M 29.1 14.15 Q 33.6 16.9 34.55 18.45 31.45 21.8 28.45 25.15 27.8 26 18.2 35.95 14.85 32.45 14.6 31.2 15.9 29.8 22 22.6 27.05 16.6 29.1 14.15 M 29.45 47.85 Q 29.55 47.95 29.65 48.05 32.05 50.5 34 52.5 32.3 54.3 30.35 56.4 20.85 66.7 18.35 69.7 15.45 66.75 13.6 65 19.05 58.7 29.45 47.85 Z"
         stroke="none"
         fill="#0074d9" />
    </g>
    <g
       id="a-3">
      <path
         id="path3129"
         d=" M 92.35 27.95 Q 91.4 25.9 85.05 19.85 79.65 14.65 77.6 14.4 76.85 13.65 75.85 12.65 72.1 9 68.9 10.95 65.7 12.85 61.75 17 57.45 21.55 55 24.6 50.45 29.95 46.8 34.3 40.25 42.2 35.9 47.95 35.55 47.65 35.15 47.35 34.25 46.7 33.5 46.1 31.8 44.6 28.75 42.25 21.35 36.5 20.2 36.5 18.5 37.95 13.1 44.65 7.7 51.4 7.7 52.05 L 23.9 69.45 Q 23.95 69.5 37.35 84.35 37.9 84.75 39 85.6 44.1 89.55 45 89.45 45.45 89.75 45.8 89.75 48.1 85.9 52.85 78.8 59.8 68.55 67.25 58.75 72.35 52.05 83.95 38.65 92.65 28.55 92.35 27.95 M 83.4 22.65 Q 88.15 27.05 88.75 28.4 87.4 29.75 77.75 41.65 68.3 53.3 65.9 56.6 59.15 65.25 54.45 71.35 45.45 83.05 44.6 85.05 41.1 80.75 32.4 71.1 26.25 64.4 23.9 61.85 19.95 57.55 19.1 56.3 19.15 56 23.15 51.1 27.2 46.1 27.95 45.6 42.6 58.05 43.6 58.05 43.85 58.05 58.5 38.75 70.45 23.15 77.4 17.45 79.15 18.7 83.4 22.65 M 74.65 16.5 Q 72.1 19 69.25 22 64.95 26.55 62.5 29.6 57.95 34.95 54.3 39.3 47.45 47.55 43 53.45 42.8 53.25 38.6 50 42.15 45.4 51 33.75 62.95 18.15 69.9 12.45 71.4 13.5 74.65 16.5 M 15.65 46.1 Q 19.7 41.1 20.45 40.6 23.25 41.85 25.65 43.65 23.75 45.75 20.6 49.65 15.45 56.05 15.25 57 12.6 54.15 11.6 51.3 11.65 51 15.65 46.1 Z"
         stroke="none"
         fill="#0074d9" />
    </g>
  </defs>
  <sodipodi:namedview
     pagecolor="#ffffff"
     bordercolor="#666666"
     borderopacity="1"
     objecttolerance="10"
     gridtolerance="10"
     guidetolerance="10"
     inkscape:pageopacity="0"
     inkscape:pageshadow="2"
     inkscape:window-width="1717"
     inkscape:window-height="628"
     id="namedview1841"
     showgrid="false"
     inkscape:pagecheckerboard="true"
     inkscape:object-nodes="false"
     inkscape:zoom="2.36"
     inkscape:cx="120.08581"
     inkscape:cy="77.220616"
     inkscape:window-x="1977"
     inkscape:window-y="266"
     inkscape:window-maximized="0"
     inkscape:current-layer="svg1839" />
  <g
     transform="translate(0,-161.535)"
     id="g1837">
    <path
       style="color:#000000;font-style:normal;font-variant:normal;font-weight:normal;font-stretch:normal;font-size:medium;line-height:normal;font-family:sans-serif;font-variant-ligatures:normal;font-variant-position:normal;font-variant-caps:normal;font-variant-numeric:normal;font-variant-alternates:normal;font-feature-settings:normal;text-indent:0;text-align:start;text-decoration:none;text-decoration-line:none;text-decoration-style:solid;text-decoration-color:#000000;letter-spacing:normal;word-spacing:normal;text-transform:none;writing-mode:lr-tb;direction:ltr;text-orientation:mixed;dominant-baseline:auto;baseline-shift:baseline;text-anchor:start;white-space:normal;shape-padding:0;clip-rule:nonzero;display:inline;overflow:visible;visibility:visible;opacity:1;isolation:auto;mix-blend-mode:normal;color-interpolation:sRGB;color-interpolation-filters:linearRGB;solid-color:#000000;solid-opacity:1;vector-effect:none;fill:#ffffff;fill-opacity:1;fill-rule:nonzero;stroke:none;stroke-width:2.64585805;stroke-linecap:round;stroke-linejoin:round;stroke-miterlimit:4;stroke-dasharray:none;stroke-dashoffset:0;stroke-opacity:1;paint-order:normal;color-rendering:auto;image-rendering:auto;shape-rendering:auto;text-rendering:auto;enable-background:accumulate"
       d="m 67.7385,185.714 c -6.3499,0 -11.5999,5.22 -11.5999,11.581 0,6.36 5.25,11.58 11.5999,11.58 6.34,0 11.5701,-5.22 11.5701,-11.58 0,-6.361 -5.23,-11.581 -11.5701,-11.581 z m -44.1297,8.82 c -6.3299,0 -11.56,5.22 -11.56,11.581 0,6.36 5.2301,11.58 11.56,11.58 6.3602,0 11.6099,-5.22 11.6099,-11.58 0,-6.361 -5.2497,-11.581 -11.6099,-11.581 z m 88.2492,0 c -6.38,0 -11.61,5.22 -11.61,11.581 0,6.36 5.23,11.58 11.61,11.58 6.33,0 11.56,-5.22 11.56,-11.58 0,-6.361 -5.23,-11.581 -11.56,-11.581 z m -44.1394,18.75 c -9.77,0 -17.64,3.93 -17.64,8.82 v 7.53 c 5.64,-0.95 11.56,-1.47 17.66,-1.47 6.091,0 11.99,0.52 17.63,1.47 v -7.53 c 0,-4.89 -7.87,-8.82 -17.65,-8.82 z m -44.1097,8.82 c -9.77,0 -17.65007,3.93 -17.65007,8.82 v 22 c 3.48,-4.551 8.09007,-8.62 13.51007,-12.06 6.27,-3.961 13.6399,-7.13 21.7897,-9.32 v -0.62 c 0,-4.89 -7.8696,-8.82 -17.6497,-8.82 z m 88.2291,0 c -9.78,0 -17.6294,3.93 -17.6294,8.82 v 0.62 c 8.1394,2.18 15.5194,5.36 21.7894,9.32 5.42,3.43 10,7.5 13.48,12.039 v -21.979 c 0,-4.89 -7.87,-8.82 -17.62,-8.82 z m -44.0994,8.82 a 66.1502,41.9 0 0 0 -66.14977,41.9 H 133.878 a 66.1502,41.9 0 0 0 -66.1394,-41.9 z"
       id="path1835"
       inkscape:connector-curvature="0" />
  </g>
  <g
     id="g2392"
     transform="translate(204.7895,-161.535)">
    <path
       inkscape:connector-curvature="0"
       id="path2390"
       d="m 67.7385,185.714 c -6.3499,0 -11.5999,5.22 -11.5999,11.581 0,6.36 5.25,11.58 11.5999,11.58 6.34,0 11.5701,-5.22 11.5701,-11.58 0,-6.361 -5.23,-11.581 -11.5701,-11.581 z m -44.1297,8.82 c -6.3299,0 -11.56,5.22 -11.56,11.581 0,6.36 5.2301,11.58 11.56,11.58 6.3602,0 11.6099,-5.22 11.6099,-11.58 0,-6.361 -5.2497,-11.581 -11.6099,-11.581 z m 88.2492,0 c -6.38,0 -11.61,5.22 -11.61,11.581 0,6.36 5.23,11.58 11.61,11.58 6.33,0 11.56,-5.22 11.56,-11.58 0,-6.361 -5.23,-11.581 -11.56,-11.581 z m -44.1394,18.75 c -9.77,0 -17.64,3.93 -17.64,8.82 v 7.53 c 5.64,-0.95 11.56,-1.47 17.66,-1.47 6.091,0 11.99,0.52 17.63,1.47 v -7.53 c 0,-4.89 -7.87,-8.82 -17.65,-8.82 z m -44.1097,8.82 c -9.77,0 -17.65007,3.93 -17.65007,8.82 v 22 c 3.48,-4.551 8.09007,-8.62 13.51007,-12.06 6.27,-3.961 13.6399,-7.13 21.7897,-9.32 v -0.62 c 0,-4.89 -7.8696,-8.82 -17.6497,-8.82 z m 88.2291,0 c -9.78,0 -17.6294,3.93 -17.6294,8.82 v 0.62 c 8.1394,2.18 15.5194,5.36 21.7894,9.32 5.42,3.43 10,7.5 13.48,12.039 v -21.979 c 0,-4.89 -7.87,-8.82 -17.62,-8.82 z m -44.0994,8.82 a 66.1502,41.9 0 0 0 -66.14977,41.9 H 133.878 a 66.1502,41.9 0 0 0 -66.1394,-41.9 z"
       style="color:#000000;font-style:normal;font-variant:normal;font-weight:normal;font-stretch:normal;font-size:medium;line-height:normal;font-family:sans-serif;font-variant-ligatures:normal;font-variant-position:normal;font-variant-caps:normal;font-variant-numeric:normal;font-variant-alternates:normal;font-feature-settings:normal;text-indent:0;text-align:start;text-decoration:none;text-decoration-line:none;text-decoration-style:solid;text-decoration-color:#000000;letter-spacing:normal;word-spacing:normal;text-transform:none;writing-mode:lr-tb;direction:ltr;text-orientation:mixed;dominant-baseline:auto;baseline-shift:baseline;text-anchor:start;white-space:normal;shape-padding:0;clip-rule:nonzero;display:inline;overflow:visible;visibility:visible;opacity:1;isolation:auto;mix-blend-mode:normal;color-interpolation:sRGB;color-interpolation-filters:linearRGB;solid-color:#000000;solid-opacity:1;vector-effect:none;fill:#ffffff;fill-opacity:1;fill-rule:nonzero;stroke:none;stroke-width:2.64585805;stroke-linecap:round;stroke-linejoin:round;stroke-miterlimit:4;stroke-dasharray:none;stroke-dashoffset:0;stroke-opacity:1;paint-order:normal;color-rendering:auto;image-rendering:auto;shape-rendering:auto;text-rendering:auto;enable-background:accumulate" />
  </g>
  <g
     style="fill:#ffdc00"
     id="g2561"
     transform="matrix(0.43949389,0,0,0.43949389,8.8971986,16.188984)">
    <g
       id="g2548"
       style="fill:none;fill-rule:evenodd;stroke:none;stroke-width:1">
      <g
         id="g2546"
         transform="translate(-248,-88)">
        <path
           id="path2544"
           d="m 300.13279,112.00197 c -0.0446,-0.001 -0.0894,-0.002 -0.13458,-0.002 -2.37544,0 -3.99966,1.82453 -3.99966,4.68182 0,0.10656 0.002,0.2138 0.006,0.32152 -0.10111,-0.0374 -0.20242,-0.0725 -0.30376,-0.10548 -1.60107,-0.52026 -3.0354,-0.39336 -4.09379,0.2609 C 288.2018,116.38625 284.33265,116 280,116 c -7.85797,0 -14.1913,1.27053 -19,3.81158 v 5.79641 C 266.24428,123.30152 272.60007,122 280,122 c 3.87918,0 7.4691,0.33946 10.75734,0.97925 0.57955,0.65275 1.41307,1.18298 2.47196,1.52706 0.10134,0.0329 0.20398,0.064 0.30775,0.0932 -0.0668,0.0846 -0.13155,0.17011 -0.19418,0.25633 -1.67933,2.31159 -1.43765,4.74244 0.48412,6.13881 1.92177,1.39636 4.30814,0.87506 5.98746,-1.43653 0.0626,-0.0862 0.12391,-0.17424 0.18376,-0.2639 0.0599,0.0897 0.12113,0.17769 0.18376,0.2639 1.67933,2.31159 4.06569,2.83289 5.98746,1.43653 0.29867,-0.21702 0.55676,-0.45902 0.77337,-0.72168 3.14052,2.69744 5.0572,5.69368 5.0572,7.727 0,0.74673 -0.78872,1.23003 -1.45404,0.89098 C 302.85302,134.97065 292.67134,133 280,133 c -12.67134,0 -22.85302,1.97065 -30.54596,5.89098 C 248.78872,139.23003 248,138.74673 248,138 c 0,-2.22618 3.03258,-6.26133 7.51952,-9.3524 1.09042,-0.75118 2.25092,-1.44736 3.48048,-2.08398 v -8.16497 C 259,104.76319 269.15202,99 280,99 c 8.96608,0 17.45672,3.93704 20.13279,13.00197 z m -1.87989,6.50348 c -0.16606,-0.60446 -0.25452,-1.23414 -0.25452,-1.82363 0,-1.80115 0.78398,-2.68182 1.99983,-2.68182 1.21585,0 1.99983,0.88067 1.99983,2.68182 0,0.58949 -0.0885,1.21917 -0.25452,1.82363 -0.24441,0.88964 0.74358,1.60752 1.51408,1.10014 0.52351,-0.34474 1.09499,-0.62346 1.65558,-0.80562 1.71285,-0.55659 2.79261,-0.0831 3.16832,1.07339 0.37572,1.15643 -0.21951,2.17425 -1.93236,2.73084 -0.56059,0.18216 -1.18673,0.29261 -1.81288,0.32145 -0.92155,0.0424 -1.29893,1.20399 -0.57833,1.78006 0.48962,0.3914 0.93126,0.84882 1.27773,1.32573 1.0586,1.45716 0.94194,2.63049 -0.0417,3.3452 -0.98364,0.71472 -2.13549,0.4631 -3.1941,-0.99406 -0.34646,-0.47691 -0.64498,-1.03833 -0.8659,-1.62496 -0.32513,-0.86341 -1.54636,-0.86341 -1.8715,0 -0.22092,0.58663 -0.51944,1.14805 -0.8659,1.62496 -1.0586,1.45716 -2.21046,1.70878 -3.1941,0.99406 -0.98364,-0.71471 -1.10029,-1.88804 -0.0417,-3.3452 0.34647,-0.47691 0.78811,-0.93433 1.27773,-1.32573 0.72061,-0.57607 0.34322,-1.73762 -0.57833,-1.78006 -0.62615,-0.0288 -1.25229,-0.13929 -1.81288,-0.32145 -1.71285,-0.55659 -2.30808,-1.57441 -1.93236,-2.73084 0.37572,-1.15644 1.45547,-1.62998 3.16832,-1.07339 0.5606,0.18216 1.13207,0.46088 1.65558,0.80562 0.7705,0.50738 1.7585,-0.2105 1.51408,-1.10014 z M 299.99821,125 c 1.3806,0 2.49979,-1.11929 2.49979,-2.5 0,-1.38071 -1.11919,-2.5 -2.49979,-2.5 -1.38059,0 -2.49979,1.11929 -2.49979,2.5 0,1.38071 1.1192,2.5 2.49979,2.5 z"
           inkscape:connector-curvature="0"
           style="fill:#ffdc00;fill-rule:nonzero" />
      </g>
    </g>
  </g>
  <g
     style="fill:#2ecc40"
     id="g2749"
     transform="matrix(0.54015423,0,0,0.54015423,93.872569,10.725676)">
    <g
       id="g2736"
       style="fill:none;fill-rule:evenodd;stroke:none;stroke-width:1">
      <g
         id="g2734"
         transform="translate(-88,-168)">
        <path
           id="path2732"
           d="m 99.000004,211.88816 c -5.688153,-1.66592 -14.273158,-8.72239 -7.330137,-17.60998 3.403801,-4.35713 9.859063,-2.96153 19.058343,-5.93094 7.27179,-2.34724 13.3316,-8.42906 20.94854,-7.474 6.96442,0.87324 9.64675,5.673 11.37288,7.85915 3.10272,3.92963 6.55275,3.93475 7.33681,7.1561 1.43302,5.8876 -4.39187,8.83981 -7.38644,14.59896 V 216 c 0,0.64859 -0.6079,1.12558 -1.23787,0.9713 -6.92271,-1.69536 -13.84288,-2.54273 -20.76213,-2.54273 -6.91925,0 -13.83942,0.84737 -20.76213,2.54273 C 99.607896,217.12558 98.999999,216.64859 99,216 Z m 1.627326,-6.152 c 0.44274,-0.32645 0.95804,-0.5652 1.52313,-0.68802 0.0784,-0.017 0.15689,-0.034 0.23533,-0.0508 -2.42676,-0.68554 -4.668779,-1.49875 -6.726059,-2.43963 0.94039,1.50191 2.596255,2.5614 4.967599,3.17848 z m 11.5844,-2.291 c 0.86772,-0.0879 1.73547,-0.1628 2.60323,-0.22467 -3.07281,-1.15171 -5.79122,-2.37265 -8.15523,-3.66281 0.97813,1.56219 2.8288,2.85801 5.552,3.88748 z m 12.43252,-0.36862 c 0.88298,0.0371 1.76595,0.0877 2.64889,0.15173 C 123.92605,200.82034 121.16167,198.41092 119,196 c 0.51093,2.55463 2.39235,4.91348 5.64425,7.07654 z m 12.0634,1.34567 c 0.67673,0.12255 1.35344,0.25303 2.03013,0.39143 1.42618,-0.96778 2.51184,-2.57232 3.257,-4.81364 -1.3227,1.76668 -3.08508,3.24075 -5.28713,4.42221 z M 141,208.95688 c 0,-0.94088 -0.65581,-1.75454 -1.57523,-1.95437 C 133.28176,205.66737 127.14056,205 121,205 c -6.14056,0 -12.28176,0.66737 -18.42477,2.00251 -0.91941,0.19983 -1.57522,1.01349 -1.57522,1.95437 l -1e-5,5.77751 c 6.66495,-1.53704 13.33207,-2.30582 20,-2.30582 6.66794,0 13.33505,0.76878 20,2.30582 z"
           inkscape:connector-curvature="0"
           style="fill:#2ecc40;fill-rule:nonzero" />
      </g>
    </g>
  </g>
  <g
     style="fill:#ff4136"
     id="g2937"
     transform="matrix(0.54312217,0,0,0.54312217,50.346306,4.4044035)">
    <g
       id="g2924"
       style="fill:none;fill-rule:evenodd;stroke:none;stroke-width:1">
      <g
         id="g2922"
         transform="translate(-728,-168)">
        <path
           id="path2920"
           d="m 740.3621,191.53096 3.202,-7.68481 C 744.02991,182.72821 745.12223,182 746.33333,182 h 27.33334 c 1.2111,0 2.30342,0.72821 2.76923,1.84615 l 3.202,7.68481 c 2.16559,0.59123 4.28628,1.28603 6.3621,2.08442 L 779,213 c -5.33333,-2.66667 -11.66667,-4 -19,-4 -7.33333,0 -13.66667,1.33333 -19,4 l -7,-19.38462 c 2.07582,-0.79839 4.19651,-1.49319 6.3621,-2.08442 z m 2.4224,-0.61376 C 748.24607,189.63907 753.98457,189 760,189 c 6.01543,0 11.75393,0.63907 17.2155,1.9172 l -2.62576,-6.30182 C 774.43447,184.24274 774.07037,184 773.66667,184 h -27.33334 c -0.4037,0 -0.7678,0.24274 -0.92307,0.61538 z M 762,197 v -3 h -4 v 3 h -3 v 4 h 3 v 3 h 4 v -3 h 3 v -4 z"
           inkscape:connector-curvature="0"
           style="fill:#ff4136;fill-rule:nonzero" />
      </g>
    </g>
  </g>
  <g
     transform="matrix(0.43949389,0,0,0.43949389,214.39375,16.47599)"
     id="g2945"
     style="fill:#ffdc00">
    <g
       style="fill:none;fill-rule:evenodd;stroke:none;stroke-width:1"
       id="g2943">
      <g
         transform="translate(-248,-88)"
         id="g2941">
        <path
           style="fill:#ffdc00;fill-rule:nonzero"
           inkscape:connector-curvature="0"
           d="m 300.13279,112.00197 c -0.0446,-0.001 -0.0894,-0.002 -0.13458,-0.002 -2.37544,0 -3.99966,1.82453 -3.99966,4.68182 0,0.10656 0.002,0.2138 0.006,0.32152 -0.10111,-0.0374 -0.20242,-0.0725 -0.30376,-0.10548 -1.60107,-0.52026 -3.0354,-0.39336 -4.09379,0.2609 C 288.2018,116.38625 284.33265,116 280,116 c -7.85797,0 -14.1913,1.27053 -19,3.81158 v 5.79641 C 266.24428,123.30152 272.60007,122 280,122 c 3.87918,0 7.4691,0.33946 10.75734,0.97925 0.57955,0.65275 1.41307,1.18298 2.47196,1.52706 0.10134,0.0329 0.20398,0.064 0.30775,0.0932 -0.0668,0.0846 -0.13155,0.17011 -0.19418,0.25633 -1.67933,2.31159 -1.43765,4.74244 0.48412,6.13881 1.92177,1.39636 4.30814,0.87506 5.98746,-1.43653 0.0626,-0.0862 0.12391,-0.17424 0.18376,-0.2639 0.0599,0.0897 0.12113,0.17769 0.18376,0.2639 1.67933,2.31159 4.06569,2.83289 5.98746,1.43653 0.29867,-0.21702 0.55676,-0.45902 0.77337,-0.72168 3.14052,2.69744 5.0572,5.69368 5.0572,7.727 0,0.74673 -0.78872,1.23003 -1.45404,0.89098 C 302.85302,134.97065 292.67134,133 280,133 c -12.67134,0 -22.85302,1.97065 -30.54596,5.89098 C 248.78872,139.23003 248,138.74673 248,138 c 0,-2.22618 3.03258,-6.26133 7.51952,-9.3524 1.09042,-0.75118 2.25092,-1.44736 3.48048,-2.08398 v -8.16497 C 259,104.76319 269.15202,99 280,99 c 8.96608,0 17.45672,3.93704 20.13279,13.00197 z m -1.87989,6.50348 c -0.16606,-0.60446 -0.25452,-1.23414 -0.25452,-1.82363 0,-1.80115 0.78398,-2.68182 1.99983,-2.68182 1.21585,0 1.99983,0.88067 1.99983,2.68182 0,0.58949 -0.0885,1.21917 -0.25452,1.82363 -0.24441,0.88964 0.74358,1.60752 1.51408,1.10014 0.52351,-0.34474 1.09499,-0.62346 1.65558,-0.80562 1.71285,-0.55659 2.79261,-0.0831 3.16832,1.07339 0.37572,1.15643 -0.21951,2.17425 -1.93236,2.73084 -0.56059,0.18216 -1.18673,0.29261 -1.81288,0.32145 -0.92155,0.0424 -1.29893,1.20399 -0.57833,1.78006 0.48962,0.3914 0.93126,0.84882 1.27773,1.32573 1.0586,1.45716 0.94194,2.63049 -0.0417,3.3452 -0.98364,0.71472 -2.13549,0.4631 -3.1941,-0.99406 -0.34646,-0.47691 -0.64498,-1.03833 -0.8659,-1.62496 -0.32513,-0.86341 -1.54636,-0.86341 -1.8715,0 -0.22092,0.58663 -0.51944,1.14805 -0.8659,1.62496 -1.0586,1.45716 -2.21046,1.70878 -3.1941,0.99406 -0.98364,-0.71471 -1.10029,-1.88804 -0.0417,-3.3452 0.34647,-0.47691 0.78811,-0.93433 1.27773,-1.32573 0.72061,-0.57607 0.34322,-1.73762 -0.57833,-1.78006 -0.62615,-0.0288 -1.25229,-0.13929 -1.81288,-0.32145 -1.71285,-0.55659 -2.30808,-1.57441 -1.93236,-2.73084 0.37572,-1.15644 1.45547,-1.62998 3.16832,-1.07339 0.5606,0.18216 1.13207,0.46088 1.65558,0.80562 0.7705,0.50738 1.7585,-0.2105 1.51408,-1.10014 z M 299.99821,125 c 1.3806,0 2.49979,-1.11929 2.49979,-2.5 0,-1.38071 -1.11919,-2.5 -2.49979,-2.5 -1.38059,0 -2.49979,1.11929 -2.49979,2.5 0,1.38071 1.1192,2.5 2.49979,2.5 z"
           id="path2939" />
      </g>
    </g>
  </g>
  <g
     style="fill:#ffdc00"
     id="g2953"
     transform="matrix(0.43949389,0,0,0.43949389,258.30572,8.1528057)">
    <g
       id="g2951"
       style="fill:none;fill-rule:evenodd;stroke:none;stroke-width:1">
      <g
         id="g2949"
         transform="translate(-248,-88)">
        <path
           id="path2947"
           d="m 300.13279,112.00197 c -0.0446,-0.001 -0.0894,-0.002 -0.13458,-0.002 -2.37544,0 -3.99966,1.82453 -3.99966,4.68182 0,0.10656 0.002,0.2138 0.006,0.32152 -0.10111,-0.0374 -0.20242,-0.0725 -0.30376,-0.10548 -1.60107,-0.52026 -3.0354,-0.39336 -4.09379,0.2609 C 288.2018,116.38625 284.33265,116 280,116 c -7.85797,0 -14.1913,1.27053 -19,3.81158 v 5.79641 C 266.24428,123.30152 272.60007,122 280,122 c 3.87918,0 7.4691,0.33946 10.75734,0.97925 0.57955,0.65275 1.41307,1.18298 2.47196,1.52706 0.10134,0.0329 0.20398,0.064 0.30775,0.0932 -0.0668,0.0846 -0.13155,0.17011 -0.19418,0.25633 -1.67933,2.31159 -1.43765,4.74244 0.48412,6.13881 1.92177,1.39636 4.30814,0.87506 5.98746,-1.43653 0.0626,-0.0862 0.12391,-0.17424 0.18376,-0.2639 0.0599,0.0897 0.12113,0.17769 0.18376,0.2639 1.67933,2.31159 4.06569,2.83289 5.98746,1.43653 0.29867,-0.21702 0.55676,-0.45902 0.77337,-0.72168 3.14052,2.69744 5.0572,5.69368 5.0572,7.727 0,0.74673 -0.78872,1.23003 -1.45404,0.89098 C 302.85302,134.97065 292.67134,133 280,133 c -12.67134,0 -22.85302,1.97065 -30.54596,5.89098 C 248.78872,139.23003 248,138.74673 248,138 c 0,-2.22618 3.03258,-6.26133 7.51952,-9.3524 1.09042,-0.75118 2.25092,-1.44736 3.48048,-2.08398 v -8.16497 C 259,104.76319 269.15202,99 280,99 c 8.96608,0 17.45672,3.93704 20.13279,13.00197 z m -1.87989,6.50348 c -0.16606,-0.60446 -0.25452,-1.23414 -0.25452,-1.82363 0,-1.80115 0.78398,-2.68182 1.99983,-2.68182 1.21585,0 1.99983,0.88067 1.99983,2.68182 0,0.58949 -0.0885,1.21917 -0.25452,1.82363 -0.24441,0.88964 0.74358,1.60752 1.51408,1.10014 0.52351,-0.34474 1.09499,-0.62346 1.65558,-0.80562 1.71285,-0.55659 2.79261,-0.0831 3.16832,1.07339 0.37572,1.15643 -0.21951,2.17425 -1.93236,2.73084 -0.56059,0.18216 -1.18673,0.29261 -1.81288,0.32145 -0.92155,0.0424 -1.29893,1.20399 -0.57833,1.78006 0.48962,0.3914 0.93126,0.84882 1.27773,1.32573 1.0586,1.45716 0.94194,2.63049 -0.0417,3.3452 -0.98364,0.71472 -2.13549,0.4631 -3.1941,-0.99406 -0.34646,-0.47691 -0.64498,-1.03833 -0.8659,-1.62496 -0.32513,-0.86341 -1.54636,-0.86341 -1.8715,0 -0.22092,0.58663 -0.51944,1.14805 -0.8659,1.62496 -1.0586,1.45716 -2.21046,1.70878 -3.1941,0.99406 -0.98364,-0.71471 -1.10029,-1.88804 -0.0417,-3.3452 0.34647,-0.47691 0.78811,-0.93433 1.27773,-1.32573 0.72061,-0.57607 0.34322,-1.73762 -0.57833,-1.78006 -0.62615,-0.0288 -1.25229,-0.13929 -1.81288,-0.32145 -1.71285,-0.55659 -2.30808,-1.57441 -1.93236,-2.73084 0.37572,-1.15644 1.45547,-1.62998 3.16832,-1.07339 0.5606,0.18216 1.13207,0.46088 1.65558,0.80562 0.7705,0.50738 1.7585,-0.2105 1.51408,-1.10014 z M 299.99821,125 c 1.3806,0 2.49979,-1.11929 2.49979,-2.5 0,-1.38071 -1.11919,-2.5 -2.49979,-2.5 -1.38059,0 -2.49979,1.11929 -2.49979,2.5 0,1.38071 1.1192,2.5 2.49979,2.5 z"
           inkscape:connector-curvature="0"
           style="fill:#ffdc00;fill-rule:nonzero" />
      </g>
    </g>
  </g>
  <g
     transform="matrix(0.43949389,0,0,0.43949389,302.5047,17.050003)"
     id="g2961"
     style="fill:#ffdc00">
    <g
       style="fill:none;fill-rule:evenodd;stroke:none;stroke-width:1"
       id="g2959">
      <g
         transform="translate(-248,-88)"
         id="g2957">
        <path
           style="fill:#ffdc00;fill-rule:nonzero"
           inkscape:connector-curvature="0"
           d="m 300.13279,112.00197 c -0.0446,-0.001 -0.0894,-0.002 -0.13458,-0.002 -2.37544,0 -3.99966,1.82453 -3.99966,4.68182 0,0.10656 0.002,0.2138 0.006,0.32152 -0.10111,-0.0374 -0.20242,-0.0725 -0.30376,-0.10548 -1.60107,-0.52026 -3.0354,-0.39336 -4.09379,0.2609 C 288.2018,116.38625 284.33265,116 280,116 c -7.85797,0 -14.1913,1.27053 -19,3.81158 v 5.79641 C 266.24428,123.30152 272.60007,122 280,122 c 3.87918,0 7.4691,0.33946 10.75734,0.97925 0.57955,0.65275 1.41307,1.18298 2.47196,1.52706 0.10134,0.0329 0.20398,0.064 0.30775,0.0932 -0.0668,0.0846 -0.13155,0.17011 -0.19418,0.25633 -1.67933,2.31159 -1.43765,4.74244 0.48412,6.13881 1.92177,1.39636 4.30814,0.87506 5.98746,-1.43653 0.0626,-0.0862 0.12391,-0.17424 0.18376,-0.2639 0.0599,0.0897 0.12113,0.17769 0.18376,0.2639 1.67933,2.31159 4.06569,2.83289 5.98746,1.43653 0.29867,-0.21702 0.55676,-0.45902 0.77337,-0.72168 3.14052,2.69744 5.0572,5.69368 5.0572,7.727 0,0.74673 -0.78872,1.23003 -1.45404,0.89098 C 302.85302,134.97065 292.67134,133 280,133 c -12.67134,0 -22.85302,1.97065 -30.54596,5.89098 C 248.78872,139.23003 248,138.74673 248,138 c 0,-2.22618 3.03258,-6.26133 7.51952,-9.3524 1.09042,-0.75118 2.25092,-1.44736 3.48048,-2.08398 v -8.16497 C 259,104.76319 269.15202,99 280,99 c 8.96608,0 17.45672,3.93704 20.13279,13.00197 z m -1.87989,6.50348 c -0.16606,-0.60446 -0.25452,-1.23414 -0.25452,-1.82363 0,-1.80115 0.78398,-2.68182 1.99983,-2.68182 1.21585,0 1.99983,0.88067 1.99983,2.68182 0,0.58949 -0.0885,1.21917 -0.25452,1.82363 -0.24441,0.88964 0.74358,1.60752 1.51408,1.10014 0.52351,-0.34474 1.09499,-0.62346 1.65558,-0.80562 1.71285,-0.55659 2.79261,-0.0831 3.16832,1.07339 0.37572,1.15643 -0.21951,2.17425 -1.93236,2.73084 -0.56059,0.18216 -1.18673,0.29261 -1.81288,0.32145 -0.92155,0.0424 -1.29893,1.20399 -0.57833,1.78006 0.48962,0.3914 0.93126,0.84882 1.27773,1.32573 1.0586,1.45716 0.94194,2.63049 -0.0417,3.3452 -0.98364,0.71472 -2.13549,0.4631 -3.1941,-0.99406 -0.34646,-0.47691 -0.64498,-1.03833 -0.8659,-1.62496 -0.32513,-0.86341 -1.54636,-0.86341 -1.8715,0 -0.22092,0.58663 -0.51944,1.14805 -0.8659,1.62496 -1.0586,1.45716 -2.21046,1.70878 -3.1941,0.99406 -0.98364,-0.71471 -1.10029,-1.88804 -0.0417,-3.3452 0.34647,-0.47691 0.78811,-0.93433 1.27773,-1.32573 0.72061,-0.57607 0.34322,-1.73762 -0.57833,-1.78006 -0.62615,-0.0288 -1.25229,-0.13929 -1.81288,-0.32145 -1.71285,-0.55659 -2.30808,-1.57441 -1.93236,-2.73084 0.37572,-1.15644 1.45547,-1.62998 3.16832,-1.07339 0.5606,0.18216 1.13207,0.46088 1.65558,0.80562 0.7705,0.50738 1.7585,-0.2105 1.51408,-1.10014 z M 299.99821,125 c 1.3806,0 2.49979,-1.11929 2.49979,-2.5 0,-1.38071 -1.11919,-2.5 -2.49979,-2.5 -1.38059,0 -2.49979,1.11929 -2.49979,2.5 0,1.38071 1.1192,2.5 2.49979,2.5 z"
           id="path2955" />
      </g>
    </g>
  </g>
  <g
     style="fill:#0074d9"
     id="g3081"
     transform="matrix(0.41133693,0,0,0.41133693,47.597164,70.133172)">
    <g
       id="g3069">
      <use
         id="use3067"
         xlink:href="#a"
         x="0"
         y="0"
         width="100%"
         height="100%" />
    </g>
  </g>
  <g
     style="fill:#0074d9"
     id="g3148"
     transform="matrix(0.39364788,0,0,0.39364788,253.03667,71.522066)">
    <g
       id="g3136">
      <use
         id="use3134"
         xlink:href="#a-3"
         x="0"
         y="0"
         width="100%"
         height="100%" />
    </g>
  </g>
</svg>
