<?xml version="1.0" encoding="UTF-8" standalone="no"?>
<!-- Created with Inkscape (http://www.inkscape.org/) -->

<svg
   xmlns:dc="http://purl.org/dc/elements/1.1/"
   xmlns:cc="http://creativecommons.org/ns#"
   xmlns:rdf="http://www.w3.org/1999/02/22-rdf-syntax-ns#"
   xmlns:svg="http://www.w3.org/2000/svg"
   xmlns="http://www.w3.org/2000/svg"
   xmlns:sodipodi="http://sodipodi.sourceforge.net/DTD/sodipodi-0.dtd"
   xmlns:inkscape="http://www.inkscape.org/namespaces/inkscape"
   width="180.1385mm"
   height="59.629063mm"
   viewBox="0 0 180.1385 59.629064"
   version="1.1"
   id="svg8"
   inkscape:version="0.92.4 5da689c313, 2019-01-14"
   sodipodi:docname="six_hats.svg">
  <defs
     id="defs2" />
  <sodipodi:namedview
     id="base"
     pagecolor="#ffffff"
     bordercolor="#666666"
     borderopacity="1.0"
     inkscape:pageopacity="0.0"
     inkscape:pageshadow="2"
     inkscape:zoom="1.979899"
     inkscape:cx="334.84162"
     inkscape:cy="103.37066"
     inkscape:document-units="mm"
     inkscape:current-layer="layer1"
     showgrid="false"
     inkscape:pagecheckerboard="true"
     fit-margin-top="20"
     fit-margin-left="0"
     fit-margin-right="0"
     fit-margin-bottom="20"
     inkscape:window-width="1920"
     inkscape:window-height="1014"
     inkscape:window-x="1920"
     inkscape:window-y="34"
     inkscape:window-maximized="1" />
  <metadata
     id="metadata5">
    <rdf:RDF>
      <cc:Work
         rdf:about="">
        <dc:format>image/svg+xml</dc:format>
        <dc:type
           rdf:resource="http://purl.org/dc/dcmitype/StillImage" />
        <dc:title></dc:title>
      </cc:Work>
    </rdf:RDF>
  </metadata>
  <g
     inkscape:label="Layer 1"
     inkscape:groupmode="layer"
     id="layer1"
     transform="translate(-17.598307,-100.23442)">
    <g
       style="fill:#111111"
       id="g1028"
       transform="matrix(0.41341146,0,0,0.41341146,79.070298,118.58077)">
      <g
         id="g1015"
         style="fill:none;fill-rule:evenodd;stroke:none;stroke-width:1">
        <g
           id="g1013"
           transform="translate(-408,-248)">
          <path
             id="path1011"
             d="M 419.29134,287.1011 C 418.42991,274.86762 418,267.53848 418,265.06522 418,257.70101 427.92284,252 440,252 c 12.07716,0 22,5.70101 22,13.06522 0,2.47326 -0.42992,9.8024 -1.29134,22.03588 C 467.02636,286.77224 471,287.1152 471,290.11202 471,294.16703 463.4798,299 440,299 c -23.4798,0 -31,-4.83297 -31,-8.88798 0,-2.99681 3.97364,-3.33978 10.29134,-3.01092 z m 1.73102,-3.9338 c 0.14586,2.12187 0.30729,4.42091 0.48431,6.89679 C 427.01615,292.02011 433.1793,293 440,293 c 6.82069,0 12.98385,-0.97989 18.49333,-2.9359 0.17701,-2.47588 0.33845,-4.77493 0.48431,-6.8968 -5.24424,2.03287 -11.82831,3.24296 -18.97764,3.24296 -7.14933,0 -13.7334,-1.21009 -18.97764,-3.24296 z"
             inkscape:connector-curvature="0"
             style="fill:#111111;fill-rule:nonzero" />
        </g>
      </g>
    </g>
    <g
       style="fill:#0074d9"
       id="g1051"
       transform="matrix(0.41341146,0,0,0.41341146,171.27829,117.45441)">
      <g
         id="g1038"
         style="fill:none;fill-rule:evenodd;stroke:none;stroke-width:1">
        <g
           id="g1036"
           transform="translate(-408,-168)">
          <path
             id="path1034"
             d="m 466.45286,205.93383 5.37187,7.83397 c 0.37333,0.54445 0.126,1.29485 -0.49789,1.51061 C 460.30204,219.09111 449.85932,221 440,221 c -9.85932,0 -20.30204,-1.90889 -31.32684,-5.72159 -0.62389,-0.21576 -0.87122,-0.96616 -0.49789,-1.51061 l 5.37187,-7.83397 -3.44311,-10.45368 c -0.76121,-2.31112 0.25185,-4.83466 2.39979,-5.97791 l 23.73739,-12.63442 c 2.3498,-1.2507 5.16778,-1.2507 7.51758,0 l 23.73739,12.63442 c 2.14794,1.14325 3.161,3.66679 2.39979,5.97791 z M 465.72849,203.74 C 458.20364,205.63001 448.44896,207 440,207 c -8.44896,0 -18.20364,-1.36999 -25.72849,-3.26 l 1.0671,3.23982 C 422.97748,208.99275 431.1974,210 440,210 c 8.8026,0 17.02252,-1.00725 24.66139,-3.02018 z m -25.72895,-6.76021 5.29007,3.23116 -1.43829,-6.02964 4.70773,-4.03267 -6.17898,-0.49537 -2.38053,-5.72348 -2.38053,5.72348 -6.17898,0.49537 4.70773,4.03267 -1.43829,6.02964 z"
             inkscape:connector-curvature="0"
             style="fill:#0074d9;fill-rule:nonzero" />
        </g>
      </g>
    </g>
    <g
       style="fill:#2ecc40"
       id="g1074"
       transform="matrix(0.41341146,0,0,0.41341146,140.60676,119.60612)">
      <g
         id="g1061"
         style="fill:none;fill-rule:evenodd;stroke:none;stroke-width:1">
        <g
           id="g1059"
           transform="translate(-88,-168)">
          <path
             id="path1057"
             d="m 99.000004,211.88816 c -5.688153,-1.66592 -14.273158,-8.72239 -7.330137,-17.60998 3.403801,-4.35713 9.859063,-2.96153 19.058343,-5.93094 7.27179,-2.34724 13.3316,-8.42906 20.94854,-7.474 6.96442,0.87324 9.64675,5.673 11.37288,7.85915 3.10272,3.92963 6.55275,3.93475 7.33681,7.1561 1.43302,5.8876 -4.39187,8.83981 -7.38644,14.59896 V 216 c 0,0.64859 -0.6079,1.12558 -1.23787,0.9713 -6.92271,-1.69536 -13.84288,-2.54273 -20.76213,-2.54273 -6.91925,0 -13.83942,0.84737 -20.76213,2.54273 C 99.607896,217.12558 98.999999,216.64859 99,216 Z m 1.627326,-6.152 c 0.44274,-0.32645 0.95804,-0.5652 1.52313,-0.68802 0.0784,-0.017 0.15689,-0.034 0.23533,-0.0508 -2.42676,-0.68554 -4.668779,-1.49875 -6.726059,-2.43963 0.94039,1.50191 2.596255,2.5614 4.967599,3.17848 z m 11.5844,-2.291 c 0.86772,-0.0879 1.73547,-0.1628 2.60323,-0.22467 -3.07281,-1.15171 -5.79122,-2.37265 -8.15523,-3.66281 0.97813,1.56219 2.8288,2.85801 5.552,3.88748 z m 12.43252,-0.36862 c 0.88298,0.0371 1.76595,0.0877 2.64889,0.15173 C 123.92605,200.82034 121.16167,198.41092 119,196 c 0.51093,2.55463 2.39235,4.91348 5.64425,7.07654 z m 12.0634,1.34567 c 0.67673,0.12255 1.35344,0.25303 2.03013,0.39143 1.42618,-0.96778 2.51184,-2.57232 3.257,-4.81364 -1.3227,1.76668 -3.08508,3.24075 -5.28713,4.42221 z M 141,208.95688 c 0,-0.94088 -0.65581,-1.75454 -1.57523,-1.95437 C 133.28176,205.66737 127.14056,205 121,205 c -6.14056,0 -12.28176,0.66737 -18.42477,2.00251 -0.91941,0.19983 -1.57522,1.01349 -1.57522,1.95437 l -1e-5,5.77751 c 6.66495,-1.53704 13.33207,-2.30582 20,-2.30582 6.66794,0 13.33505,0.76878 20,2.30582 z"
             inkscape:connector-curvature="0"
             style="fill:#2ecc40;fill-rule:nonzero" />
        </g>
      </g>
    </g>
    <g
       style="fill:#ff4136"
       id="g1097"
       transform="matrix(0.41341146,0,0,0.41341146,48.334301,118.96661)">
      <g
         id="g1084"
         style="fill:none;fill-rule:evenodd;stroke:none;stroke-width:1">
        <g
           id="g1082"
           transform="translate(-728,-168)">
          <path
             id="path1080"
             d="m 740.3621,191.53096 3.202,-7.68481 C 744.02991,182.72821 745.12223,182 746.33333,182 h 27.33334 c 1.2111,0 2.30342,0.72821 2.76923,1.84615 l 3.202,7.68481 c 2.16559,0.59123 4.28628,1.28603 6.3621,2.08442 L 779,213 c -5.33333,-2.66667 -11.66667,-4 -19,-4 -7.33333,0 -13.66667,1.33333 -19,4 l -7,-19.38462 c 2.07582,-0.79839 4.19651,-1.49319 6.3621,-2.08442 z m 2.4224,-0.61376 C 748.24607,189.63907 753.98457,189 760,189 c 6.01543,0 11.75393,0.63907 17.2155,1.9172 l -2.62576,-6.30182 C 774.43447,184.24274 774.07037,184 773.66667,184 h -27.33334 c -0.4037,0 -0.7678,0.24274 -0.92307,0.61538 z M 762,197 v -3 h -4 v 3 h -3 v 4 h 3 v 3 h 4 v -3 h 3 v -4 z"
             inkscape:connector-curvature="0"
             style="fill:#ff4136;fill-rule:nonzero" />
        </g>
      </g>
    </g>
    <g
       style="fill:#ffffff"
       id="g1120"
       transform="matrix(0.41341146,0,0,0.41341146,17.598307,120.75306)">
      <g
         id="g1107"
         style="fill:none;fill-rule:evenodd;stroke:none;stroke-width:1">
        <g
           id="g1105"
           transform="translate(-248,-248)">
          <path
             id="path1103"
             d="m 300.24696,274.21556 3.64325,-1.31088 c 3.14846,-1.13285 6.61915,0.50113 7.752,3.64959 0.23674,0.65797 0.35779,1.35195 0.35779,2.05121 0,4.58528 -3.52291,8.40112 -8.09361,8.76659 l -32.82669,2.62475 c -0.0745,0.006 -0.14955,0.004 -0.22357,-0.007 l -14.87865,-2.16303 C 251.39725,287.1607 248,283.23386 248,278.60548 c 0,-2.70154 2.19003,-4.89157 4.89156,-4.89157 0.95126,0 1.88188,0.27737 2.67793,0.79814 l 3.19964,2.09321 5.85359,-14.21718 c 0.9954,-2.41761 3.68529,-3.66017 6.17136,-2.85077 5.08016,1.65397 8.1488,2.48095 9.20592,2.48095 1.05712,0 4.12577,-0.82698 9.20593,-2.48095 2.48606,-0.80938 5.17594,0.43317 6.17134,2.85077 z m 3.50002,11.16287 C 307.27824,285.09608 310,282.14801 310,278.60548 c 0,-0.46843 -0.0811,-0.93332 -0.23968,-1.37408 -0.75889,-2.10913 -3.08387,-3.20371 -5.19299,-2.44483 l -33.22877,11.95606 c -0.29531,0.10626 -0.62338,0.0677 -0.88602,-0.10411 l -15.97797,-10.4528 c -0.47057,-0.30785 -1.02069,-0.47181 -1.58301,-0.47181 -1.59696,0 -2.89156,1.2946 -2.89156,2.89157 0,3.63495 2.66807,6.71895 6.26521,7.24189 l 14.76728,2.14684 z"
             inkscape:connector-curvature="0"
             style="fill:#ffffff;fill-rule:nonzero" />
        </g>
      </g>
    </g>
    <g
       style="fill:#ffdc00"
       id="g1143"
       transform="matrix(0.41341146,0,0,0.41341146,109.80629,116.52722)">
      <g
         id="g1130"
         style="fill:none;fill-rule:evenodd;stroke:none;stroke-width:1">
        <g
           id="g1128"
           transform="translate(-248,-88)">
          <path
             id="path1126"
             d="m 300.13279,112.00197 c -0.0446,-0.001 -0.0894,-0.002 -0.13458,-0.002 -2.37544,0 -3.99966,1.82453 -3.99966,4.68182 0,0.10656 0.002,0.2138 0.006,0.32152 -0.10111,-0.0374 -0.20242,-0.0725 -0.30376,-0.10548 -1.60107,-0.52026 -3.0354,-0.39336 -4.09379,0.2609 C 288.2018,116.38625 284.33265,116 280,116 c -7.85797,0 -14.1913,1.27053 -19,3.81158 v 5.79641 C 266.24428,123.30152 272.60007,122 280,122 c 3.87918,0 7.4691,0.33946 10.75734,0.97925 0.57955,0.65275 1.41307,1.18298 2.47196,1.52706 0.10134,0.0329 0.20398,0.064 0.30775,0.0932 -0.0668,0.0846 -0.13155,0.17011 -0.19418,0.25633 -1.67933,2.31159 -1.43765,4.74244 0.48412,6.13881 1.92177,1.39636 4.30814,0.87506 5.98746,-1.43653 0.0626,-0.0862 0.12391,-0.17424 0.18376,-0.2639 0.0599,0.0897 0.12113,0.17769 0.18376,0.2639 1.67933,2.31159 4.06569,2.83289 5.98746,1.43653 0.29867,-0.21702 0.55676,-0.45902 0.77337,-0.72168 3.14052,2.69744 5.0572,5.69368 5.0572,7.727 0,0.74673 -0.78872,1.23003 -1.45404,0.89098 C 302.85302,134.97065 292.67134,133 280,133 c -12.67134,0 -22.85302,1.97065 -30.54596,5.89098 C 248.78872,139.23003 248,138.74673 248,138 c 0,-2.22618 3.03258,-6.26133 7.51952,-9.3524 1.09042,-0.75118 2.25092,-1.44736 3.48048,-2.08398 v -8.16497 C 259,104.76319 269.15202,99 280,99 c 8.96608,0 17.45672,3.93704 20.13279,13.00197 z m -1.87989,6.50348 c -0.16606,-0.60446 -0.25452,-1.23414 -0.25452,-1.82363 0,-1.80115 0.78398,-2.68182 1.99983,-2.68182 1.21585,0 1.99983,0.88067 1.99983,2.68182 0,0.58949 -0.0885,1.21917 -0.25452,1.82363 -0.24441,0.88964 0.74358,1.60752 1.51408,1.10014 0.52351,-0.34474 1.09499,-0.62346 1.65558,-0.80562 1.71285,-0.55659 2.79261,-0.0831 3.16832,1.07339 0.37572,1.15643 -0.21951,2.17425 -1.93236,2.73084 -0.56059,0.18216 -1.18673,0.29261 -1.81288,0.32145 -0.92155,0.0424 -1.29893,1.20399 -0.57833,1.78006 0.48962,0.3914 0.93126,0.84882 1.27773,1.32573 1.0586,1.45716 0.94194,2.63049 -0.0417,3.3452 -0.98364,0.71472 -2.13549,0.4631 -3.1941,-0.99406 -0.34646,-0.47691 -0.64498,-1.03833 -0.8659,-1.62496 -0.32513,-0.86341 -1.54636,-0.86341 -1.8715,0 -0.22092,0.58663 -0.51944,1.14805 -0.8659,1.62496 -1.0586,1.45716 -2.21046,1.70878 -3.1941,0.99406 -0.98364,-0.71471 -1.10029,-1.88804 -0.0417,-3.3452 0.34647,-0.47691 0.78811,-0.93433 1.27773,-1.32573 0.72061,-0.57607 0.34322,-1.73762 -0.57833,-1.78006 -0.62615,-0.0288 -1.25229,-0.13929 -1.81288,-0.32145 -1.71285,-0.55659 -2.30808,-1.57441 -1.93236,-2.73084 0.37572,-1.15644 1.45547,-1.62998 3.16832,-1.07339 0.5606,0.18216 1.13207,0.46088 1.65558,0.80562 0.7705,0.50738 1.7585,-0.2105 1.51408,-1.10014 z M 299.99821,125 c 1.3806,0 2.49979,-1.11929 2.49979,-2.5 0,-1.38071 -1.11919,-2.5 -2.49979,-2.5 -1.38059,0 -2.49979,1.11929 -2.49979,2.5 0,1.38071 1.1192,2.5 2.49979,2.5 z"
             inkscape:connector-curvature="0"
             style="fill:#ffdc00;fill-rule:nonzero" />
        </g>
      </g>
    </g>
  </g>
</svg>
