<svg height='100px' width='100px'  fill="#ffffff" xmlns="http://www.w3.org/2000/svg" xmlns:xlink="http://www.w3.org/1999/xlink" viewBox="0 0 64 64" version="1.1" x="0px" y="0px"><title>028 cowboy-hat accessory fashion clothing man</title><desc>Created with Sketch.</desc><g stroke="none" stroke-width="1" fill="none" fill-rule="evenodd"><g transform="translate(-248.000000, -248.000000)"><path d="M300.246964,274.215561 L303.890208,272.904684 C307.038669,271.771835 310.509357,273.405812 311.642206,276.554273 C311.878948,277.212237 312,277.906218 312,278.605477 C312,283.190761 308.477086,287.006604 303.906389,287.372067 L271.079703,289.996819 C271.005145,290.00278 270.930153,290.000358 270.856134,289.989597 L255.977482,287.826569 C251.397248,287.160704 248,283.233859 248,278.605477 C248,275.903941 250.190028,273.713913 252.891564,273.713913 C253.842823,273.713913 254.773441,273.991278 255.569486,274.512052 L258.769128,276.60526 L264.622723,262.388084 C265.618119,259.970474 268.308015,258.727915 270.794081,259.537312 C275.874237,261.191276 278.942877,262.018258 280,262.018258 C281.057124,262.018258 284.125766,261.191275 289.205928,259.537309 C291.691988,258.727925 294.381874,259.970479 295.377266,262.38808 L300.246964,274.215561 Z M303.746982,285.37843 C307.278243,285.096078 310,282.148008 310,278.605477 C310,278.137051 309.918908,277.672159 309.760317,277.231396 C309.001433,275.122273 306.676454,274.027688 304.567331,274.786573 L271.338562,286.74263 C271.043248,286.848886 270.715181,286.810337 270.452543,286.638519 L254.474572,276.185719 C254.004004,275.877873 253.453884,275.713913 252.891564,275.713913 C251.294597,275.713913 250,277.00851 250,278.605477 C250,282.240434 252.66807,285.32443 256.265213,285.847375 L271.032487,287.994211 L303.746982,285.37843 Z" fill="#ffffff" fill-rule="nonzero"></path></g></g></svg>