<svg height='100px' width='100px'  fill="#ffdc00" xmlns="http://www.w3.org/2000/svg" xmlns:xlink="http://www.w3.org/1999/xlink" viewBox="0 0 64 64" version="1.1" x="0px" y="0px"><title>048 woman-hat accessory fashion clothing</title><desc>Created with Sketch.</desc><g stroke="none" stroke-width="1" fill="none" fill-rule="evenodd"><g transform="translate(-248.000000, -88.000000)"><path d="M300.13279,112.00197 C300.088206,112.000659 300.043344,112 299.998211,112 C297.622775,112 295.998552,113.824532 295.998552,116.681818 C295.998552,116.788384 296.000711,116.895617 296.004992,117.003337 C295.903876,116.965978 295.802567,116.930787 295.701226,116.897857 C294.100163,116.377596 292.665826,116.504501 291.607443,117.158757 C288.201798,116.386252 284.33265,116 280,116 C272.142034,116 265.8087,117.270527 261,119.811582 L261,125.607986 C266.244285,123.301516 272.600069,122 280,122 C283.879177,122 287.469097,122.339461 290.757338,122.979246 C291.336889,123.631996 292.170408,124.162225 293.2293,124.506309 C293.330641,124.53924 293.433285,124.570323 293.537047,124.599538 C293.470273,124.684169 293.405501,124.769654 293.342869,124.855867 C291.663541,127.16746 291.905223,129.598313 293.826992,130.994678 C295.74876,132.391044 298.135126,131.869742 299.814454,129.558149 C299.877086,129.471936 299.938364,129.383913 299.998211,129.294249 C300.058059,129.383913 300.119337,129.471936 300.181969,129.558149 C301.861297,131.869742 304.247662,132.391044 306.169431,130.994678 C306.468101,130.777663 306.726191,130.535662 306.942797,130.273004 C310.083322,132.970445 312,135.966684 312,138 C312,138.746729 311.211276,139.230027 310.545956,138.890979 C302.853015,134.970646 292.671343,133 280,133 C267.328657,133 257.146985,134.970646 249.454044,138.890979 C248.788724,139.230027 248,138.746729 248,138 C248,135.773825 251.032576,131.738666 255.519521,128.647605 C256.609939,127.896415 257.770442,127.20024 259,126.56362 L259,118.398649 C259,104.763186 269.15202,99 280,99 C288.966078,99 297.456721,102.937041 300.13279,112.00197 Z M298.252902,118.505448 C298.086837,117.900986 297.998382,117.271311 297.998382,116.681818 C297.998382,114.880667 298.782363,114 299.998211,114 C301.21406,114 301.998041,114.880667 301.998041,116.681818 C301.998041,117.271311 301.909586,117.900986 301.743521,118.505448 C301.499108,119.39509 302.487102,120.112971 303.257602,119.605586 C303.781114,119.260847 304.352586,118.982133 304.913178,118.79997 C306.626029,118.243384 307.705786,118.716917 308.081503,119.873356 C308.457221,121.029794 307.861992,122.04761 306.149141,122.604196 C305.588548,122.786359 304.962408,122.896806 304.336262,122.925645 C303.414707,122.968089 303.037327,124.129645 303.757935,124.705706 C304.247548,125.097107 304.689192,125.554528 305.035658,126.031437 C306.094258,127.488599 305.977602,128.661926 304.993961,129.376644 C304.010319,130.091363 302.858465,129.83974 301.799865,128.382578 C301.4534,127.905669 301.15488,127.344254 300.933965,126.757615 C300.608825,125.894205 299.387597,125.894205 299.062458,126.757615 C298.841543,127.344254 298.543023,127.905669 298.196557,128.382578 C297.137958,129.83974 295.986104,130.091363 295.002462,129.376644 C294.01882,128.661926 293.902165,127.488599 294.960765,126.031437 C295.307231,125.554528 295.748875,125.097107 296.238488,124.705706 C296.959096,124.129645 296.581715,122.968089 295.66016,122.925645 C295.034014,122.896806 294.407875,122.786359 293.847282,122.604196 C292.134431,122.04761 291.539202,121.029794 291.91492,119.873356 C292.290637,118.716917 293.370394,118.243384 295.083244,118.79997 C295.643837,118.982133 296.215309,119.260847 296.738821,119.605586 C297.509321,120.112971 298.497315,119.39509 298.252902,118.505448 Z M299.998211,125 C301.378806,125 302.497998,123.880712 302.497998,122.5 C302.497998,121.119288 301.378806,120 299.998211,120 C298.617617,120 297.498424,121.119288 297.498424,122.5 C297.498424,123.880712 298.617617,125 299.998211,125 Z" fill="#ffdc00" fill-rule="nonzero"></path></g></g></svg>